<?xml version="1.0" standalone="no"?><!DOCTYPE svg PUBLIC "-//W3C//DTD SVG 1.1//EN" "http://www.w3.org/Graphics/SVG/1.1/DTD/svg11.dtd"><svg t="1532510186464" class="icon" style="" viewBox="0 0 1024 1024" version="1.1" xmlns="http://www.w3.org/2000/svg" p-id="1884" xmlns:xlink="http://www.w3.org/1999/xlink" width="64" height="64"><defs><style type="text/css"></style></defs><path d="M575.757 785.070h20.136v3.473h-20.136v-3.473z" p-id="1885" fill="#ffffff"></path><path d="M664.349 763.576h4.984v16.107h-4.984v-16.107z" p-id="1886" fill="#ffffff"></path><path d="M433.106 771.78h-15.529c-0.050 0.068-0.1 0.126-0.15 0.176 1.946 2.501 4.405 4.556 7.375 6.166 3.472-1.862 6.241-3.977 8.304-6.342z" p-id="1887" fill="#ffffff"></path><path d="M442.771 763.777h-36.846v37.702h36.846v-37.702zM435.17 799.818c-7.417-1.643-15.386-3.053-23.91-4.227l1.057-3.474c8.389 1.107 16.46 2.4 24.211 3.875l-1.359 3.826zM416.545 788.895l1.007-3.372c4.932 0.738 10.117 1.577 15.553 2.516l-1.057 3.522c-5.503-1.106-10.671-1.995-15.503-2.667zM440.002 786.277c-5.956-1.359-10.99-2.895-15.1-4.606-4.112 1.846-9.564 3.649-16.36 5.411-0.47-1.107-1.041-2.182-1.712-3.221 5.889-1.209 10.755-2.592 14.597-4.153-2.366-1.628-4.404-3.499-6.116-5.612-1.594 1.527-3.331 3.020-5.21 4.479-0.671-0.704-1.493-1.527-2.466-2.466 4.597-3.323 8.373-7.231 11.325-11.728l3.323 1.56c-0.621 0.923-1.292 1.83-2.014 2.718h17.819v2.97c-2.466 2.987-5.612 5.68-9.438 8.080 3.54 1.191 7.877 2.121 13.011 2.793-0.771 1.511-1.324 2.769-1.66 3.776z" p-id="1888" fill="#ffffff"></path><path d="M680.053 763.475h5.034v16.208h-5.034v-16.208z" p-id="1889" fill="#ffffff"></path><path d="M575.757 791.664h20.136v3.473h-20.136v-3.473z" p-id="1890" fill="#ffffff"></path><path d="M825.426 278.229c-78.336-62.058-179.054-87.493-274.685-111.909-76.302-19.329-104.788-23.399-154.638-53.919-36.625-23.399-118.013-64.093-125.134-54.937-8.139 8.139 17.295 35.607 27.469 69.18 15.261 47.816 3.053 86.474-35.607 115.978-89.527 68.162-206.523 187.193-198.383 352.004 11.191 224.835 216.696 380.49 467.982 364.212 252.303-16.278 422.202-179.055 427.289-403.889 3.050-108.857-44.766-203.471-134.293-276.72zM383.122 766.193h3.573v29.548h-3.573v-29.548zM301.024 761.412h40.822v3.775h-40.822v-3.775zM296.595 800.875c3.758-4.866 7.4-10.57 10.923-17.115l3.675 2.065c-3.523 6.107-7.282 11.913-11.276 17.417-1.040-0.772-2.147-1.562-3.322-2.367zM324.732 800.372c0 4.194-2.198 6.308-6.594 6.341-2.333 0-4.95-0.017-7.853-0.050-0.202-1.376-0.453-2.921-0.755-4.63 2.651 0.268 5.151 0.403 7.5 0.403 2.281 0 3.423-1.126 3.423-3.374v-19.026h-24.059v-3.775h49.933v3.775h-21.594v20.336zM342.803 802.133c-4.161-6.073-8.054-11.409-11.678-16.007l3.372-2.266c4.128 5.067 8.121 10.353 11.98 15.856l-3.674 2.416zM357.803 807.519h-3.423v-29.447c-1.477 3.071-3.121 6.109-4.933 9.112-0.402-1.343-0.939-2.886-1.611-4.631 4.329-7.349 7.534-15.486 9.615-24.412l3.725 0.704c-0.89 3.76-2.013 7.467-3.373 11.124v37.55zM381.914 764.582h-10.269c-0.52 2.752-1.099 5.337-1.736 7.752h9.79v3.474c-1.376 13.222-6.762 23.826-16.158 31.812-0.738-1.006-1.661-2.097-2.768-3.272 4.748-3.824 8.423-8.438 11.023-13.841-1.661-1.359-3.489-2.802-5.486-4.329l2.013-2.819c1.527 1.041 3.179 2.257 4.958 3.649 1.291-3.439 2.19-7.173 2.693-11.199h-7.073c-1.896 6.141-4.236 11.074-7.021 14.799-0.705-1.074-1.51-2.114-2.416-3.121 3.792-5.453 6.602-13.087 8.431-22.904h-5.461v-3.522h19.481v3.521zM395.706 800.321c0 2.55-0.403 4.295-1.209 5.234-0.705 0.873-2.114 1.326-4.228 1.359-1.443 0.034-3.775 0-6.996-0.1-0.134-1.376-0.369-2.769-0.704-4.178 2.583 0.269 4.697 0.403 6.341 0.403 1.309 0.034 2.148-0.202 2.517-0.704 0.403-0.437 0.604-1.51 0.604-3.221v-40.823h3.675v42.030zM693.14 762.066h3.523v33.675h-3.523v-33.675zM471.461 761.312h26.778v3.522h-26.778v-3.522zM446.545 807.519h-3.775v-2.416h-36.846v2.416h-3.775v-47.366h44.396v47.366zM462.351 807.419h-3.523v-27.257c-1.779 5.772-3.893 10.411-6.341 13.919-0.47-1.444-1.023-2.921-1.662-4.43 3.725-5.739 6.275-11.746 7.651-18.020h-7.298v-3.423h7.651v-9.866h3.523v9.866h6.846v3.423h-6.846v8.91l2.165-2.266c2.148 1.846 4.043 3.625 5.688 5.336l-2.668 2.769c-1.611-1.83-3.339-3.676-5.184-5.537v26.576zM465.724 800.472c2.684-4.328 5.386-9.698 8.105-16.108l3.775 1.511c-2.752 6.141-5.487 11.594-8.205 16.359-1.041-0.605-2.266-1.191-3.675-1.762zM486.662 800.623c0 4.196-1.929 6.291-5.788 6.291-1.812 0.034-4.044 0.017-6.694-0.050-0.169-1.209-0.403-2.601-0.704-4.178 2.316 0.269 4.43 0.404 6.342 0.404 2.013 0 3.020-1.242 3.020-3.726v-19.783h-13.692v-3.522h31.41v3.522h-13.893v21.041zM497.485 802.184c-2.181-5.2-4.682-10.571-7.5-16.107l3.573-1.713c3.188 6.109 5.839 11.46 7.952 16.057l-4.026 1.763zM525.95 808.174h-3.522l3.096-13.413h4.681l-4.254 13.413zM528.359 589.54l38.658-40.694 41.712-42.729c4.070-3.051 3.051-5.087-2.034-6.104-3.051 0-27.469-5.087-51.885-10.173l-47.816-10.174c-1.017-55.954 15.26-91.562 42.729-95.631 35.607-4.070 72.232 42.728 85.457 128.186 11.192 72.232-13.225 134.291-46.798 137.343-23.4 3.050-44.765-20.348-60.024-60.025zM567.25 767.201l-3.522 2.919c-2.316-2.987-4.581-5.637-6.796-7.953l3.020-2.567c2.752 2.718 5.185 5.252 7.298 7.601zM561.009 805.858l-2.317-3.323c1.141-1.074 1.712-2.534 1.712-4.379v-19.027h-6.141v-3.674h9.966v23.455c1.879-1.274 3.759-2.599 5.638-3.976 0.1 1.678 0.218 3.136 0.352 4.379-3.625 2.417-6.694 4.598-9.211 6.544zM599.818 801.43c0 3.624-1.861 5.452-5.588 5.485-1.98 0.034-4.513 0.051-7.6 0.051-0.168-1.074-0.42-2.366-0.755-3.875 2.921 0.201 5.303 0.302 7.147 0.302 1.914 0 2.87-0.874 2.87-2.619v-2.516h-20.135v9.11h-3.925v-25.52h27.987v19.582zM604.097 778.778h-36.696v-3.171h16.259v-3.474h-12.885v-3.171h12.885v-3.374h-14.648v-3.171h14.648v-4.529h4.077v4.529h15.352v3.171h-15.352v3.374h14.044v3.171h-14.044v3.474h16.36v3.171zM655.036 801.982c-0.336 1.678-1.074 2.853-2.215 3.523-1.006 0.638-2.818 0.957-5.436 0.957h-5.99c-4.698 0.202-6.946-1.996-6.745-6.593v-14.9h-9.841c-0.269 5.806-1.434 10.269-3.499 13.39-2.484 3.893-6.979 7.046-13.49 9.463-0.67-1.074-1.527-2.281-2.567-3.625 5.973-2.047 10.084-4.681 12.333-7.902 1.846-2.484 2.91-6.259 3.196-11.326h-14.12v-3.725h21.997v-10.721h-12.056c-1.643 3.321-3.415 6.206-5.31 8.657-1.241-0.972-2.332-1.745-3.27-2.317 3.758-4.865 6.676-10.686 8.758-17.465l3.925 1.106c-0.754 2.232-1.552 4.329-2.39 6.291h10.344v-8.557h4.127v8.558h18.675v3.727h-18.675v10.721h22.148v3.725h-16.208v14.245c-0.201 2.583 0.957 3.759 3.473 3.523h5.135c2.317 0 3.591-0.873 3.826-2.619 0.234-1.711 0.418-4.16 0.554-7.349 1.274 0.537 2.684 1.042 4.228 1.51-0.168 2.484-0.47 5.051-0.907 7.701zM692.083 782.905h-3.725v19.228c0 3.155-1.376 4.732-4.127 4.732-1.209 0-2.634-0.050-4.279-0.15-0.1-1.174-0.302-2.332-0.604-3.473 1.376 0.234 2.667 0.368 3.875 0.403 1.242 0.033 1.862-0.739 1.862-2.317v-18.423h-5.034v5.184c0 8.356-1.544 14.916-4.63 19.68-0.94-1.208-1.779-2.148-2.516-2.818 2.583-3.926 3.875-9.546 3.875-16.863v-5.184h-4.178v17.819c0 3.288-1.393 4.932-4.177 4.932-1.108 0-2.35-0.050-3.725-0.15-0.136-1.174-0.336-2.332-0.605-3.473 1.51 0.234 2.668 0.352 3.474 0.352 1.173 0 1.762-0.721 1.762-2.163v-17.316h-4.984v5.788c0 7.753-1.595 14.079-4.782 18.977-0.94-1.209-1.779-2.148-2.517-2.818 2.684-4.196 4.028-9.867 4.028-17.015v-4.932h-4.028v-3.221h4.028v-19.228h11.527v19.228h4.178v-19.329h11.577v19.329h3.725v3.222zM704.567 801.479c0 3.625-1.593 5.437-4.782 5.437-1.913 0-4.145-0.033-6.694-0.1-0.135-1.376-0.368-2.769-0.704-4.178 2.415 0.234 4.345 0.368 5.789 0.403 1.812 0.034 2.718-0.873 2.718-2.718v-42.030h3.674v43.187zM715.994 797.352c-0.268-1.375-0.62-2.784-1.057-4.228 1.578 0.403 3.071 0.537 4.481 0.403 2.281-0.234 3.019-2.516 2.214-6.845-0.403-2.348-1.862-5.169-4.379-8.458 1.242-4.294 2.584-8.925 4.027-13.891h-6.392v43.541h-3.725v-47.065h14.193v3.524c-1.61 5.033-3.037 9.445-4.279 13.239 2.584 3.489 4.062 6.493 4.431 9.011 0.939 6.34-0.587 9.916-4.581 10.721-1.241 0.266-2.887 0.283-4.933 0.048zM723.444 802.788c2.751-3.221 5.251-7.064 7.5-11.529l3.322 1.812c-2.383 4.396-4.932 8.405-7.651 12.030-0.873-0.669-1.93-1.442-3.17-2.314zM755.306 804.197c-3.458-3.992-6.46-7.349-9.010-10.067l2.818-2.465c2.987 2.953 6.091 6.19 9.313 9.714l-3.121 2.818zM757.068 778.828c-6.779-3.993-12.047-8.909-15.806-14.749-2.919 4.364-6.275 8.171-10.067 11.426h20.638v3.524h-8.607v6.342h13.539v3.522h-13.539v12.483c0 3.859-1.812 5.788-5.437 5.788-1.409 0-3.289-0.017-5.637-0.050-0.168-1.175-0.404-2.567-0.705-4.177 1.812 0.268 3.541 0.402 5.184 0.402 1.846 0 2.768-0.939 2.768-2.818v-11.628h-12.684v-3.522h12.685v-6.342h-9.412v-2.416c-1.209 1.006-2.45 1.98-3.725 2.919-0.671-1.107-1.493-2.247-2.466-3.423 7.080-4.797 12.417-10.436 16.008-16.912h4.127l-0.655 1.41c3.558 6.039 8.892 10.738 16.008 14.093-0.873 1.577-1.612 2.953-2.215 4.127zM843.738 602.765c-21.365 5.087-38.659-22.382-50.868-63.077 13.225-12.208 24.416-23.399 35.607-32.554 19.33-16.278 35.608-32.555 38.659-35.607s2.034-5.087-2.034-6.104c-3.051 0-23.399-3.051-44.764-7.121-12.209-3.051-26.451-5.087-41.712-8.139 0-48.833 13.226-94.614 41.712-99.701 31.537-6.104 59.006 53.92 67.145 121.065 8.139 81.389-16.278 124.117-43.746 131.238z" p-id="1891" fill="#ffffff"></path></svg>