<?xml version="1.0" standalone="no"?><!DOCTYPE svg PUBLIC "-//W3C//DTD SVG 1.1//EN" "http://www.w3.org/Graphics/SVG/1.1/DTD/svg11.dtd"><svg t="1532081137407" class="icon" style="" viewBox="0 0 1024 1024" version="1.1" xmlns="http://www.w3.org/2000/svg" p-id="1870" xmlns:xlink="http://www.w3.org/1999/xlink" width="64" height="64"><defs><style type="text/css"></style></defs><path d="M455.102 597.346l-40.004 0c0 0-41.978 4.827-56.678 53.387-5.119 32.398 4.534 52.802 6.216 56.898 1.755 4.022 15.285 31.886 49.292 31.886l69.623 0 0-188.683-28.449-0.585L455.102 597.346zM455.102 711.068l-30.423 0c0 0-22.086-2.194-28.888-28.156-3.437-11.555 0.512-25.889 2.34-31.082 1.682-5.193 9.069-26.109 24.353-26.109l32.691 0 0 85.346L455.102 711.067zM597.346 711.068l-45.343 0c0 0-11.555-2.413-11.555-12.213L540.448 597.346 512 597.346l0 112.479c0 0 1.682 29.692 36.859 29.692l76.936 0L625.795 597.346l-28.449 0L597.346 711.068zM512 0.068C229.267 0.068 0.068 229.267 0.068 512S229.267 1023.932 512 1023.932 1023.932 794.733 1023.932 512 794.733 0.068 512 0.068zM609.998 235.703c37.225 3.876 63.333 45.562 58.433 93.098-4.9 47.537-39.053 83.006-76.278 79.13-37.225-3.876-63.333-45.562-58.433-93.098C538.62 267.297 572.847 231.827 609.998 235.703zM435.43 232.485c37.371-1.975 69.623 35.104 72.182 82.86 2.487 47.756-25.67 88.052-63.041 90.027-37.371 1.975-69.623-35.104-72.182-82.86C369.902 274.756 398.132 234.46 435.43 232.485zM246.965 459.637c-2.56-47.756 25.743-88.052 63.041-90.027 37.371-1.975 69.696 35.104 72.182 82.86 2.56 47.756-25.67 88.052-63.041 90.027C281.777 544.471 249.525 507.393 246.965 459.637zM718.967 747.489C685.764 827.204 564.51 785.81 564.51 785.81s-44.684-14.7-96.536-2.925c-51.851 11.848-96.609 7.386-96.609 7.386s-60.701 1.463-77.96-76.717c-17.259-78.326 60.554-121.182 66.332-128.495 5.704-7.46 46.147-35.47 72.036-79.715 26.035-44.319 103.922-79.715 158.699 7.386 40.443 59.092 109.7 113.722 109.7 113.722S752.096 667.774 718.967 747.489zM701.415 558.001c-37.152-3.876-63.333-45.562-58.433-93.098 4.9-47.537 39.053-83.006 76.278-79.13 37.225 3.876 63.406 45.562 58.433 93.098C772.793 526.407 738.64 561.877 701.415 558.001zM597.346 711.068l-45.343 0c0 0-11.555-2.413-11.555-12.213L540.448 597.346 512 597.346l0 112.479c0 0 1.682 29.692 36.859 29.692l76.936 0L625.795 597.346l-28.449 0L597.346 711.068zM455.102 550.249l0 47.098-40.004 0c0 0-41.978 4.827-56.678 53.387-5.119 32.398 4.534 52.802 6.216 56.898 1.755 4.022 15.285 31.886 49.292 31.886l69.623 0L483.551 550.834 455.102 550.249zM455.176 711.068l-0.073 0-30.423 0c0 0-22.086-2.194-28.888-28.156-3.437-11.555 0.512-25.889 2.34-31.082 1.682-5.193 9.069-26.109 24.353-26.109l32.691 0L455.176 711.068z" p-id="1871" fill="#ffffff"></path></svg>