<?xml version="1.0" standalone="no"?><!DOCTYPE svg PUBLIC "-//W3C//DTD SVG 1.1//EN" "http://www.w3.org/Graphics/SVG/1.1/DTD/svg11.dtd"><svg t="1532081425736" class="icon" style="" viewBox="0 0 1024 1024" version="1.1" xmlns="http://www.w3.org/2000/svg" p-id="1372" xmlns:xlink="http://www.w3.org/1999/xlink" width="64" height="64"><defs><style type="text/css"></style></defs><path d="M614.4 719.075556h135.395556l-67.128889-122.88z" p-id="1373" fill="#ffffff"></path><path d="M805.546667 372.053333L682.666667 596.195556l67.128889 122.88H995.555556zM389.12 60.302222L28.444444 719.075556h585.955556l68.266667-122.88z" p-id="1374" fill="#ffffff"></path><path d="M762.311111 95.573333a87.608889 83.057778 90 1 0 166.115556 0 87.608889 83.057778 90 1 0-166.115556 0Z" p-id="1375" fill="#ffffff"></path><path d="M161.564444 813.511111v118.328889c0 40.96-7.964444 63.715556-23.893333 69.404444l2.275556 9.102223c22.755556-4.551111 39.822222-14.791111 51.2-31.857778 6.826667-9.102222 9.102222-27.306667 7.964444-53.475556v-111.502222h-37.546667zM42.097778 978.488889c10.24 17.066667 27.306667 28.444444 51.2 32.995555l1.137778-10.24c-15.928889-6.826667-23.893333-29.582222-23.893334-69.404444V813.511111H32.995556v111.502222c0 26.168889 2.275556 44.373333 9.102222 53.475556zM712.248889 814.648889h20.48v104.675555h-20.48zM953.457778 889.742222c11.377778 12.515556 19.342222 22.755556 25.031111 29.582222h11.377778v-104.675555h-10.24v76.231111l-1.137778-3.413333c-9.102222-11.377778-23.893333-28.444444-43.235556-48.924445-9.102222-10.24-17.066667-19.342222-21.617777-23.893333h-12.515556v104.675555h9.102222v-78.506666l18.204445 20.48c5.688889 5.688889 14.791111 15.928889 25.031111 28.444444zM436.906667 873.813333c3.413333 5.688889 6.826667 11.377778 9.102222 17.066667l15.928889 29.582222h22.755555l-4.551111-6.826666c-7.964444-12.515556-15.928889-26.168889-22.755555-38.684445l-1.137778-1.137778h1.137778c12.515556-3.413333 20.48-14.791111 20.48-28.444444v-1.137778c0-15.928889-12.515556-28.444444-27.306667-28.444444h-40.96v104.675555h22.755556v-46.648889h4.551111z m-2.275556-54.613333h4.551111c11.377778 0 20.48 11.377778 20.48 23.893333 0 13.653333-9.102222 23.893333-20.48 23.893334h-4.551111V819.2zM306.062222 844.231111c0-17.066667-12.515556-29.582222-27.306666-29.582222h-40.96v104.675555h22.755555v-46.648888H278.755556c15.928889 0 27.306667-12.515556 27.306666-28.444445z m-39.822222 23.893333h-4.551111V819.2h4.551111c11.377778 0 20.48 11.377778 20.48 23.893333 0 13.653333-9.102222 25.031111-20.48 25.031111zM818.062222 813.511111h-1.137778c-34.133333 1.137778-53.475556 20.48-53.475555 54.613333s19.342222 53.475556 53.475555 54.613334h2.275556c34.133333-1.137778 53.475556-20.48 53.475556-54.613334s-19.342222-54.613333-54.613334-54.613333z m0 102.4c-20.48-1.137778-30.72-15.928889-32.995555-44.373333v-3.413334-2.275555c1.137778-28.444444 12.515556-44.373333 31.857777-45.511111 19.342222 1.137778 30.72 15.928889 31.857778 44.373333v4.551111c0 30.72-11.377778 45.511111-30.72 46.648889zM566.613333 888.604444l10.24 30.72h23.893334l-42.097778-106.951111h-10.24l-43.235556 106.951111H517.688889l9.102222-25.031111H551.822222v-9.102222h-21.617778l18.204445-46.648889zM385.706667 919.324444v-11.377777h-31.857778v-38.684445H381.155556v-11.377778h-27.306667v-31.857777l31.857778-1.137778v-10.24h-54.613334v104.675555h23.893334zM686.08 814.648889h-73.955556v10.24h25.031112v94.435555h22.755555v-94.435555h26.168889zM453.973333 983.04H438.044444c0-1.137778-1.137778-2.275556-1.137777-3.413333 0 0 0-1.137778-1.137778-1.137778H449.422222c1.137778 0 2.275556-1.137778 2.275556-2.275556v-7.964444c0-1.137778-1.137778-2.275556-2.275556-2.275556h-13.653333s-1.137778-1.137778-1.137778-2.275555-1.137778-1.137778-1.137778-2.275556-1.137778-1.137778-2.275555-1.137778h-1.137778s-1.137778 0-1.137778 1.137778v1.137778c0 1.137778 1.137778 1.137778 1.137778 2.275556h-15.928889c-1.137778 0-2.275556 1.137778-2.275555 2.275555v15.928889c0 5.688889 0 10.24-1.137778 12.515556-1.137778 2.275556-2.275556 5.688889-3.413334 7.964444v2.275556l1.137778 1.137777h1.137778s1.137778 0 1.137778-1.137777c2.275556-3.413333 3.413333-6.826667 3.413333-9.102223 1.137778-3.413333 1.137778-6.826667 1.137778-12.515555 0 1.137778 1.137778 1.137778 1.137778 1.137778h6.826666c0 5.688889-1.137778 9.102222-2.275555 11.377777-1.137778 2.275556-3.413333 4.551111-7.964445 7.964445l-1.137777 1.137778v1.137777l1.137777 1.137778h2.275556c5.688889-4.551111 9.102222-9.102222 10.24-14.791111h15.928889v5.688889c0 1.137778 0 2.275556-1.137778 3.413333-1.137778 1.137778-2.275556 1.137778-3.413333 1.137778h-5.688889s-1.137778 0-1.137778 1.137778v2.275555c0 1.137778 1.137778 1.137778 1.137778 1.137778h6.826666c5.688889 0 7.964444-2.275556 7.964445-7.964444v-4.551111-2.275556c0-1.137778-1.137778-2.275556-2.275556-2.275556H426.666667V989.866667v-2.275556h23.893333c1.137778 0 1.137778-1.137778 1.137778-2.275555v-1.137778c3.413333 0 2.275556-1.137778 2.275555-1.137778z m-6.826666-12.515556v4.551112h-30.72v-4.551112h30.72z m-30.72 0z m0 13.653334V978.488889h18.204444s-1.137778 0-1.137778 1.137778V983.04h-15.928889c-1.137778 0-1.137778 0-1.137777 1.137778zM512 979.626667h-21.617778v-6.826667h18.204445c1.137778 0 1.137778-1.137778 1.137777-2.275556v-1.137777c0-1.137778-1.137778-2.275556-1.137777-2.275556h-18.204445v-4.551111c0-1.137778-1.137778-2.275556-1.137778-2.275556h-1.137777c-1.137778 0-1.137778 1.137778-1.137778 2.275556v17.066667h-17.066667c-1.137778 0-1.137778 1.137778-1.137778 2.275555v1.137778c0 1.137778 1.137778 2.275556 1.137778 2.275556h43.235556c1.137778 0 1.137778-1.137778 1.137778-2.275556v-1.137778c0-2.275556-1.137778-2.275556-2.275556-2.275555zM509.724444 996.693333l-9.102222-4.551111c-3.413333-1.137778-9.102222-4.551111-10.24-5.688889h-1.137778c-1.137778 0-1.137778 1.137778-1.137777 2.275556v19.342222c0 1.137778 1.137778 2.275556 1.137777 2.275556h1.137778c1.137778 0 1.137778-1.137778 1.137778-2.275556v-15.928889c4.551111 2.275556 10.24 5.688889 15.928889 9.102222h2.275555l1.137778-1.137777c-1.137778-1.137778 0-1.137778-1.137778-3.413334 0 1.137778 0 1.137778 0 0zM359.537778 1002.382222l1.137778 1.137778h1.137777l1.137778-1.137778 1.137778-1.137778v-1.137777c0-1.137778-1.137778-1.137778-2.275556-2.275556l-2.275555-2.275555c0-1.137778-1.137778-1.137778-2.275556 0l-1.137778 1.137777-1.137777 1.137778v1.137778l1.137777 1.137778c2.275556 0 3.413333 1.137778 3.413334 2.275555zM393.671111 975.075556c-7.964444-3.413333-14.791111-7.964444-19.342222-13.653334l-1.137778-1.137778H369.777778s-1.137778 0-1.137778 1.137778c-4.551111 5.688889-10.24 10.24-19.342222 14.791111 0 0-1.137778 0-1.137778 1.137778v1.137778l1.137778 1.137778c0 1.137778 1.137778 1.137778 2.275555 1.137777 1.137778-1.137778 3.413333-1.137778 4.551111-2.275555v1.137778c0 1.137778 1.137778 2.275556 1.137778 2.275555h27.306667c1.137778 0 1.137778-1.137778 1.137778-2.275555V978.488889v-1.137778c2.275556 1.137778 3.413333 2.275556 5.688889 2.275556 1.137778 0 1.137778 0 2.275555-1.137778l1.137778-1.137778s0-1.137778-1.137778-2.275555z m-22.755555-10.24c3.413333 4.551111 7.964444 7.964444 13.653333 11.377777H358.4c5.688889-3.413333 10.24-6.826667 12.515556-11.377777zM383.431111 994.417778c-1.137778 1.137778-2.275556 3.413333-4.551111 4.551111v2.275555l1.137778 1.137778h2.275555l2.275556-2.275555 2.275555-2.275556v-1.137778s0-1.137778-1.137777-1.137777l-1.137778-1.137778c1.137778-1.137778 0-1.137778-1.137778 0z" p-id="1376" fill="#ffffff"></path><path d="M392.533333 1004.657778h-18.204444v-12.515556h14.791111c1.137778 0 1.137778-1.137778 1.137778-2.275555v-1.137778c0-1.137778-1.137778-2.275556-1.137778-2.275556h-14.791111v-2.275555c0-1.137778-1.137778-2.275556-1.137778-2.275556h-1.137778c-1.137778 0-1.137778 1.137778-1.137777 2.275556v2.275555h-14.791112c-1.137778 0-1.137778 1.137778-1.137777 2.275556v1.137778c0 1.137778 1.137778 2.275556 1.137777 2.275555h14.791112v12.515556h-18.204445c-1.137778 0-1.137778 1.137778-1.137778 2.275555v1.137778c0 1.137778 1.137778 2.275556 1.137778 2.275556H392.533333c1.137778 0 1.137778-1.137778 1.137778-2.275556v-1.137778c0-2.275556-1.137778-2.275556-1.137778-2.275555zM543.857778 985.315556c0 1.137778 1.137778 2.275556 1.137778 2.275555h23.893333c1.137778 0 1.137778-1.137778 1.137778-2.275555v-1.137778c0-1.137778-1.137778-2.275556-1.137778-2.275556h-23.893333c-1.137778 0-1.137778 1.137778-1.137778 3.413334zM568.888889 991.004444h-23.893333c-1.137778 0-2.275556 1.137778-2.275556 3.413334v11.377778c0 2.275556 1.137778 3.413333 2.275556 3.413333h23.893333c1.137778 0 2.275556-1.137778 2.275555-3.413333v-11.377778c0-2.275556 0-3.413333-2.275555-3.413334z m-1.137778 12.515556h-20.48v-7.964444h19.342222s1.137778 0 1.137778 1.137777v6.826667zM544.995556 978.488889h23.893333c1.137778 0 1.137778-1.137778 1.137778-2.275556v-1.137777c0-1.137778-1.137778-2.275556-1.137778-2.275556h-23.893333c-1.137778 0-1.137778 1.137778-1.137778 2.275556v1.137777c0 2.275556 0 2.275556 1.137778 2.275556zM541.582222 963.697778v-1.137778l-1.137778-1.137778h-1.137777c-1.137778 0-2.275556 0-2.275556 1.137778-2.275556 7.964444-5.688889 14.791111-9.102222 20.48v1.137778s0 1.137778 1.137778 1.137778l1.137777 1.137777h1.137778s1.137778 0 1.137778-1.137777c1.137778-1.137778 1.137778-2.275556 2.275556-3.413334v25.031111c0 1.137778 1.137778 2.275556 1.137777 2.275556h1.137778c1.137778 0 1.137778-1.137778 1.137778-2.275556v-34.133333c1.137778-2.275556 2.275556-5.688889 3.413333-9.102222zM572.302222 965.973333h-13.653333l1.137778-1.137777v-1.137778c0-1.137778-1.137778-1.137778-1.137778-2.275556s-1.137778-1.137778-2.275556-1.137778h-1.137777l-1.137778 1.137778v1.137778s0 1.137778 1.137778 1.137778v1.137778h-12.515556c-1.137778 0-1.137778 1.137778-1.137778 2.275555v1.137778c0 1.137778 1.137778 2.275556 1.137778 2.275555h29.582222c1.137778 0 1.137778-1.137778 1.137778-2.275555V967.111111l-1.137778-1.137778zM626.915556 987.591111V967.111111c0-1.137778-1.137778-2.275556-3.413334-3.413333H608.711111v-1.137778-1.137778l-1.137778-1.137778h-1.137777c-1.137778 0-1.137778 0-2.275556 1.137778 0 0 0 1.137778-1.137778 2.275556v1.137778h-9.102222c-1.137778 0-2.275556 1.137778-3.413333 3.413333v20.48c0 1.137778 1.137778 2.275556 2.275555 3.413333h28.444445c4.551111-1.137778 5.688889-2.275556 5.688889-4.551111zM597.333333 971.662222v-2.275555s0-1.137778 1.137778-1.137778h25.031111v3.413333H597.333333z m25.031111 14.791111H597.333333v-3.413333h26.168889v3.413333z m-25.031111-6.826666v-3.413334h26.168889v3.413334H597.333333zM629.191111 994.417778c-1.137778-1.137778-1.137778-1.137778 0 0l-1.137778-1.137778-2.275555 1.137778-1.137778 1.137778v1.137777c2.275556 2.275556 3.413333 3.413333 3.413333 4.551111l1.137778 1.137778h1.137778l1.137778-1.137778 1.137777-1.137777v-1.137778l-3.413333-4.551111z" p-id="1377" fill="#ffffff"></path><path d="M612.124444 998.968889l2.275556-1.137778 1.137778-1.137778v-1.137777l-1.137778-1.137778-2.275556-2.275556c-1.137778-1.137778-1.137778-1.137778-2.275555 0l-1.137778 1.137778-1.137778 1.137778v1.137778l3.413334 3.413333h1.137777z" p-id="1378" fill="#ffffff"></path><path d="M622.364444 997.831111c-1.137778-1.137778-2.275556 0-2.275555 0l-1.137778 1.137778c0 1.137778 0 2.275556-1.137778 3.413333 0 1.137778-1.137778 2.275556-3.413333 2.275556h-10.24c-1.137778 0-2.275556 0-3.413333-1.137778v-7.964444c0-1.137778-1.137778-2.275556-1.137778-2.275556h-1.137778c-1.137778 0-1.137778 1.137778-1.137778 2.275556v5.688888c0 2.275556 0 4.551111 1.137778 5.688889 1.137778 1.137778 2.275556 1.137778 4.551111 1.137778h12.515556c5.688889 0 6.826667-3.413333 7.964444-5.688889 0-1.137778 1.137778-2.275556 1.137778-3.413333-1.137778 0-1.137778-1.137778-2.275556-1.137778zM592.782222 994.417778c-1.137778-1.137778-2.275556-1.137778-2.275555 0 0 0-1.137778 0-1.137778 1.137778-1.137778 2.275556-1.137778 4.551111-2.275556 6.826666 0 1.137778 0 2.275556 1.137778 2.275556h2.275556s1.137778 0 1.137777-1.137778c1.137778-2.275556 2.275556-4.551111 2.275556-6.826667 0 0 0-1.137778-1.137778-2.275555zM675.84 973.937778c0 1.137778 1.137778 1.137778 0 0h2.275556l1.137777-1.137778v-1.137778s0-1.137778-1.137777-1.137778l-5.688889-4.551111h-2.275556v2.275556s0 1.137778 1.137778 1.137778c1.137778 2.275556 3.413333 3.413333 4.551111 4.551111zM672.426667 986.453333c1.137778 0 1.137778 0 0 0h2.275555l1.137778-1.137777v-1.137778s0-1.137778-1.137778-1.137778c-1.137778-1.137778-3.413333-2.275556-4.551111-4.551111-1.137778-1.137778-1.137778 0-2.275555 0l-1.137778 1.137778v1.137777s0 1.137778 1.137778 1.137778c2.275556 1.137778 3.413333 2.275556 4.551111 4.551111z" p-id="1379" fill="#ffffff"></path><path d="M691.768889 989.866667h-5.688889v-27.306667c0-1.137778-1.137778-2.275556-1.137778-2.275556h-1.137778c-1.137778 0-1.137778 1.137778-1.137777 2.275556V989.866667l-17.066667 2.275555c-1.137778 0-1.137778 1.137778-1.137778 2.275556v1.137778s0 1.137778 1.137778 1.137777h1.137778l14.791111-1.137777v11.377777c0 1.137778 1.137778 2.275556 1.137778 2.275556h1.137777c1.137778 0 1.137778-1.137778 1.137778-2.275556v-12.515555l5.688889-1.137778c1.137778 0 1.137778-1.137778 1.137778-2.275556V989.866667c1.137778 1.137778 1.137778 0 0 0zM665.6 987.591111s0-1.137778-1.137778-1.137778l-3.413333-3.413333c-1.137778 0-1.137778-1.137778-2.275556 0V978.488889h4.551111c1.137778 0 1.137778-1.137778 1.137778-2.275556v-1.137777c0-1.137778-1.137778-2.275556-1.137778-2.275556h-4.551111V967.111111h4.551111s1.137778 0 1.137778-1.137778v-2.275555c0-1.137778-1.137778-1.137778-2.275555-1.137778-4.551111 1.137778-9.102222 1.137778-12.515556 1.137778 0 0-1.137778 0-1.137778 1.137778v2.275555c0 1.137778 1.137778 1.137778 2.275556 1.137778h4.551111v6.826667h-5.688889c-1.137778 0-1.137778 1.137778-1.137778 2.275555v1.137778c0 1.137778 1.137778 2.275556 1.137778 2.275555h4.551111c-2.275556 5.688889-4.551111 11.377778-6.826666 15.928889v2.275556l1.137777 1.137778h1.137778s1.137778 0 1.137778-1.137778c1.137778-2.275556 3.413333-5.688889 4.551111-7.964445v17.066667c0 1.137778 1.137778 2.275556 1.137778 2.275556h1.137778c1.137778 0 1.137778-1.137778 1.137777-2.275556v-19.342222l1.137778 1.137778 1.137778 1.137777c1.137778 1.137778 1.137778 1.137778 2.275555 0l1.137778-1.137777c1.137778-1.137778 1.137778-1.137778 1.137778-2.275556zM750.933333 968.248889h-10.24v-5.688889c0-1.137778-1.137778-2.275556-1.137777-2.275556h-1.137778c-1.137778 0-1.137778 1.137778-1.137778 2.275556v5.688889h-9.102222c-1.137778 0-1.137778 1.137778-1.137778 2.275555v1.137778c0 1.137778 1.137778 2.275556 1.137778 2.275556h9.102222v6.826666h-9.102222c-1.137778 0-1.137778 1.137778-1.137778 2.275556l1.137778 2.275556c2.275556 6.826667 4.551111 11.377778 7.964444 14.791111-2.275556 2.275556-6.826667 3.413333-11.377778 5.688889l-1.137777 1.137777v1.137778l1.137777 1.137778 1.137778 1.137778h1.137778c5.688889-2.275556 10.24-4.551111 13.653333-6.826667 3.413333 2.275556 6.826667 4.551111 11.377778 6.826667 1.137778 0 1.137778 0 2.275556-1.137778l1.137777-1.137778v-1.137778s0-1.137778-1.137777-1.137777c-4.551111-2.275556-7.964444-3.413333-10.24-5.688889 3.413333-3.413333 6.826667-9.102222 9.102222-14.791111v-2.275556s0-1.137778-1.137778-1.137778c0 0-1.137778-1.137778-2.275555-1.137778h-6.826667v-6.826666h10.24c1.137778 0 1.137778-1.137778 1.137778-2.275556v-1.137778c-2.275556-2.275556-3.413333-2.275556-3.413334-2.275555z m-5.688889 14.791111c-2.275556 4.551111-4.551111 9.102222-6.826666 11.377778-2.275556-3.413333-4.551111-6.826667-5.688889-11.377778H745.244444zM722.488889 984.177778c0-1.137778 0-2.275556-1.137778-2.275556h-1.137778c-1.137778 0-1.137778 0-2.275555 1.137778h-1.137778v-9.102222h3.413333c1.137778 0 1.137778-1.137778 1.137778-2.275556v-1.137778c0-1.137778-1.137778-2.275556-1.137778-2.275555h-3.413333v-6.826667c0-1.137778-1.137778-2.275556-1.137778-2.275555h-1.137778c-1.137778 0-1.137778 1.137778-1.137777 2.275555v6.826667h-4.551111c-1.137778 0-1.137778 1.137778-1.137778 2.275555v1.137778c0 1.137778 1.137778 2.275556 1.137778 2.275556h4.551111v10.24c-1.137778 0-1.137778 0-2.275556 1.137778-1.137778 0-2.275556 0-2.275555 1.137777-1.137778 0-1.137778 1.137778-1.137778 2.275556v1.137778s0 1.137778 1.137778 1.137777h1.137777c1.137778 0 2.275556-1.137778 3.413334-1.137777v14.791111H709.973333h-1.137777v2.275555c0 1.137778 1.137778 1.137778 1.137777 1.137778h2.275556c2.275556 0 3.413333 0 4.551111-1.137778 1.137778-1.137778 1.137778-3.413333 1.137778-5.688889v-14.791111c1.137778 0 2.275556-1.137778 3.413333-1.137777 1.137778 1.137778 1.137778 0 1.137778-1.137778zM810.097778 965.973333h-22.755556s0-1.137778 1.137778-1.137777c0 0 0-1.137778 1.137778-1.137778v-1.137778s0-1.137778-1.137778-1.137778h-1.137778c-1.137778 0-2.275556 0-2.275555 1.137778-1.137778 1.137778-1.137778 3.413333-2.275556 4.551111h-12.515555c-1.137778 0-1.137778 1.137778-1.137778 2.275556v1.137777c0 1.137778 1.137778 2.275556 1.137778 2.275556h10.24c-3.413333 5.688889-7.964444 11.377778-12.515556 15.928889 0 0 0 1.137778-1.137778 1.137778v1.137777l1.137778-1.137777s1.137778 0 1.137778 1.137777h1.137778l5.688888-5.688888v22.755555c0 1.137778 1.137778 2.275556 1.137778 2.275556h1.137778c1.137778 0 1.137778-1.137778 1.137778-2.275556v-9.102222h22.755555v5.688889s-1.137778 1.137778-2.275555 0h-4.551111s-1.137778 0-1.137778 1.137778v2.275555c0 1.137778 1.137778 1.137778 1.137778 1.137778h5.688889c2.275556 0 3.413333 0 4.551111-1.137778 1.137778-1.137778 1.137778-3.413333 1.137777-4.551111v-23.893333c0-1.137778-1.137778-2.275556-2.275555-2.275556h-21.617778c1.137778-1.137778 2.275556-3.413333 2.275556-4.551111h25.031111c1.137778 0 1.137778-1.137778 1.137778-2.275556v-1.137777c1.137778-2.275556 0-3.413333-1.137778-3.413334z m-7.964445 13.653334v4.551111h-22.755555v-4.551111h22.755555z m-22.755555 0c1.137778 0 0 0 0 0z m22.755555 9.102222v4.551111h-22.755555v-4.551111h22.755555zM838.542222 978.488889l3.413334-11.377778v-2.275555c0-1.137778 0-1.137778-1.137778-2.275556 0-1.137778-1.137778-1.137778-2.275556-1.137778h-9.102222c-1.137778 0-2.275556 1.137778-2.275556 2.275556v42.097778c0 1.137778 1.137778 2.275556 1.137778 2.275555h1.137778c1.137778 0 1.137778-1.137778 1.137778-2.275555v-39.822223h5.688889l-3.413334 11.377778c-1.137778 2.275556 0 3.413333 1.137778 3.413333 2.275556 3.413333 3.413333 6.826667 3.413333 10.24 0 3.413333-1.137778 4.551111-2.275555 4.551112h-1.137778s-1.137778 0-1.137778 1.137777v2.275556c0 1.137778 1.137778 1.137778 1.137778 1.137778h2.275556c2.275556 0 5.688889-2.275556 5.688889-7.964445 0-4.551111-1.137778-7.964444-3.413334-13.653333-1.137778 1.137778-1.137778 1.137778 0 0zM870.4 1003.52c-3.413333-2.275556-5.688889-4.551111-7.964444-6.826667 1.137778 0 2.275556-1.137778 3.413333-2.275555 2.275556-1.137778 3.413333-2.275556 4.551111-3.413334l1.137778-1.137777v-1.137778l-1.137778-1.137778c0-1.137778-1.137778-1.137778-2.275556 0-3.413333 2.275556-5.688889 3.413333-7.964444 5.688889l-3.413333-6.826667h7.964444c1.137778 0 2.275556-1.137778 2.275556-2.275555v-19.342222c0-1.137778-1.137778-2.275556-2.275556-2.275556h-18.204444c-1.137778 0-2.275556 1.137778-2.275556 2.275556V1006.933333c0 1.137778 2.275556 2.275556 4.551111 0l5.688889-3.413333c1.137778 0 1.137778-1.137778 1.137778-2.275556v-1.137777s0-1.137778-1.137778-1.137778h-1.137778c-1.137778 1.137778-3.413333 2.275556-4.551111 2.275555v-15.928888h3.413334c2.275556 9.102222 7.964444 17.066667 15.928888 20.48h1.137778c1.137778 0 1.137778 0 1.137778-1.137778l1.137778-1.137778c-1.137778 2.275556-1.137778 1.137778-1.137778 0 0 1.137778 0 0 0 0z m-7.964444-27.306667v5.688889H847.644444v-5.688889h14.791112z m0-10.24s0 1.137778 0 0v5.688889H847.644444v-5.688889h14.791112z m-13.653334 0zM904.533333 965.973333v-1.137777s0-1.137778-1.137777-1.137778h-1.137778c-1.137778 0-2.275556 0-2.275556 1.137778-3.413333 6.826667-7.964444 13.653333-13.653333 18.204444l-1.137778 1.137778v1.137778l1.137778 1.137777 1.137778 1.137778h1.137777c7.964444-7.964444 12.515556-13.653333 15.928889-21.617778zM917.048889 963.697778c0-1.137778-1.137778-1.137778-2.275556-1.137778h-1.137777s-1.137778 0-1.137778 1.137778v1.137778c3.413333 7.964444 7.964444 13.653333 14.791111 19.342222h1.137778s1.137778 0 1.137777-1.137778l1.137778-1.137778v-1.137778s0-1.137778-1.137778-1.137777c-5.688889-3.413333-10.24-9.102222-12.515555-15.928889zM927.288889 1002.382222c-4.551111-5.688889-7.964444-10.24-10.24-12.515555-1.137778-1.137778-1.137778-1.137778-2.275556 0h-1.137777l-1.137778 1.137777v1.137778l5.688889 6.826667h-3.413334c-7.964444 0-13.653333 1.137778-18.204444 1.137778 4.551111-5.688889 7.964444-11.377778 11.377778-17.066667v-1.137778s0-1.137778-1.137778-1.137778l-1.137778-1.137777c-1.137778 0-2.275556 0-2.275555 1.137777-3.413333 6.826667-7.964444 13.653333-13.653334 18.204445-1.137778 1.137778-2.275556 3.413333-1.137778 3.413333v1.137778c1.137778 1.137778 2.275556 1.137778 4.551112 1.137778 5.688889 0 13.653333-1.137778 23.893333-1.137778h3.413333c1.137778 1.137778 1.137778 2.275556 2.275556 3.413333h2.275555l1.137778-1.137777c1.137778-1.137778 1.137778-2.275556 0-2.275556 1.137778 0 1.137778 0 1.137778-1.137778zM977.351111 996.693333v-12.515555c0-2.275556-1.137778-2.275556-2.275555-2.275556h-21.617778c-1.137778 0-2.275556 1.137778-2.275556 2.275556v12.515555c0 1.137778 1.137778 2.275556 2.275556 3.413334h20.48c2.275556 0 3.413333-1.137778 3.413333-3.413334z m-4.551111-1.137777h-17.066667v-9.102223H972.8v9.102223z" p-id="1380" fill="#ffffff"></path><path d="M986.453333 962.56h-37.546666v4.551111h36.408889v34.133333c0 1.137778 0 2.275556-1.137778 2.275556 0 0-1.137778 1.137778-2.275556 1.137778h-7.964444v4.551111H983.04c3.413333 0 6.826667-1.137778 6.826667-7.964445v-34.133333c0-3.413333-1.137778-4.551111-3.413334-4.551111z" p-id="1381" fill="#ffffff"></path><path d="M946.631111 971.662222h35.271111v4.551111h-35.271111zM273.066667 968.248889h-13.653334V967.111111c0-1.137778-1.137778-2.275556-2.275555-3.413333l-1.137778-2.275556c0-1.137778-1.137778-1.137778-2.275556-1.137778h-1.137777l-1.137778 1.137778v1.137778c0 1.137778 1.137778 2.275556 2.275555 3.413333h-15.928888c-1.137778 0-2.275556 1.137778-2.275556 2.275556v10.24c0 10.24-1.137778 18.204444-5.688889 23.893333v1.137778s0 1.137778 1.137778 1.137778l1.137778 1.137778h1.137777s1.137778 0 1.137778-1.137778c4.551111-6.826667 6.826667-15.928889 6.826667-27.306667v-9.102222h32.995555c1.137778 0 2.275556-1.137778 2.275556-2.275556v-1.137777c-1.137778 3.413333-2.275556 3.413333-3.413333 3.413333zM292.408889 988.728889s1.137778 0 0 0c1.137778 0 1.137778-1.137778 2.275555-1.137778l2.275556-10.24v-1.137778l-1.137778-1.137777h-1.137778c-1.137778 0-2.275556 0-2.275555 1.137777s-1.137778 2.275556-1.137778 3.413334c0 1.137778-1.137778 3.413333-1.137778 5.688889 0 1.137778 0 2.275556 1.137778 2.275555l1.137778 1.137778zM331.093333 962.56c-2.275556 0-2.275556 1.137778-2.275555 2.275556v40.96c0 1.137778 1.137778 2.275556 2.275555 2.275555h1.137778c1.137778 0 2.275556-1.137778 2.275556-2.275555v-40.96c-1.137778-1.137778-2.275556-2.275556-3.413334-2.275556zM310.613333 979.626667c0-1.137778-1.137778-2.275556-1.137777-3.413334 0 0 0-1.137778-1.137778-1.137777h-1.137778c-1.137778 0-1.137778 1.137778-1.137778 2.275555l1.137778 2.275556c1.137778 2.275556 1.137778 4.551111 2.275556 5.688889 0 0 0 1.137778 1.137777 1.137777H314.026667c1.137778 0 1.137778-1.137778 1.137777-2.275555-3.413333-1.137778-4.551111-2.275556-4.551111-4.551111z" p-id="1382" fill="#ffffff"></path><path d="M301.511111 961.422222c-1.137778 0-2.275556 1.137778-2.275555 2.275556v12.515555c0 7.964444 0 14.791111-1.137778 18.204445-1.137778 3.413333-2.275556 6.826667-5.688889 10.24v1.137778s0 1.137778 1.137778 1.137777l1.137777 1.137778h1.137778s1.137778 0 1.137778-1.137778c3.413333-3.413333 4.551111-7.964444 5.688889-11.377777 1.137778-4.551111 1.137778-10.24 1.137778-19.342223v-12.515555c-1.137778-1.137778-1.137778-2.275556-2.275556-2.275556zM316.302222 962.56c-1.137778 0-2.275556 1.137778-2.275555 2.275556v42.097777c0 1.137778 1.137778 2.275556 2.275555 2.275556h1.137778c1.137778 0 2.275556-1.137778 2.275556-2.275556v-42.097777c-1.137778-2.275556-2.275556-2.275556-3.413334-2.275556z" p-id="1383" fill="#ffffff"></path><path d="M324.266667 978.488889c0-1.137778 0-1.137778-1.137778-1.137778 0-1.137778-1.137778-1.137778-2.275556-1.137778h-1.137777l-1.137778 1.137778v1.137778c0 1.137778 0 1.137778 1.137778 2.275555 1.137778 2.275556 2.275556 4.551111 2.275555 5.688889 0 0 0 1.137778 1.137778 1.137778H326.542222c1.137778 0 1.137778-1.137778 1.137778-2.275555L324.266667 978.488889z" p-id="1384" fill="#ffffff"></path></svg>