<?xml version="1.0" standalone="no"?><!DOCTYPE svg PUBLIC "-//W3C//DTD SVG 1.1//EN" "http://www.w3.org/Graphics/SVG/1.1/DTD/svg11.dtd"><svg t="1531987659935" class="icon" style="" viewBox="0 0 1024 1024" version="1.1" xmlns="http://www.w3.org/2000/svg" p-id="1728" xmlns:xlink="http://www.w3.org/1999/xlink" width="64" height="64"><defs><style type="text/css"></style></defs><path d="M960.175617 1024H63.824383c-35.324187 0-63.824383-28.901607-63.824383-63.824383V63.824383C0 28.901607 28.901607 0 63.824383 0h895.949823c35.324187 0 63.824383 28.901607 63.824383 63.824383v895.949823c0.401411 35.324187-28.500196 64.225794-63.422972 64.225794z" fill="#4AD886" p-id="1729"></path><path d="M808.040768 171.001176H216.360643c-25.288906 0-45.359467 19.267738-45.359467 42.951v596.49706c0 23.683261 20.471972 42.951 45.359467 42.950999h591.680125c25.288906 0 45.359467-19.267738 45.359467-42.950999V213.952176c0.401411-23.683261-20.070561-42.951-45.359467-42.951z m0 639.44806H216.360643V256.100353h591.680125v554.348883z" fill="#FFFFFF" p-id="1730"></path><path d="M280.987848 303.065465v292.628773h462.827127V303.065465H280.987848z m400.608389 84.296354v83.493532c0 11.640925-9.232458 20.873383-20.873383 20.873383s-20.873383-9.232458-20.873383-20.873383v-35.725598l-92.324579 91.521756c-4.014112 4.014112-9.232458 6.021168-14.450803 6.021168-4.014112 0-7.626813-1.204234-10.838103-3.211289-1.204234-0.802822-2.408467-1.605645-3.21129-2.809879l-70.648373-69.845551-70.648373 70.246962c-8.028224 7.626813-20.471972 7.626813-28.500196 0s-8.028224-20.471972 0-28.500196l82.690709-82.289298c0.802822-0.802822 8.831047-8.429635 16.45786-8.429635 8.028224 0 15.655037 7.626813 16.45786 8.429635l68.239906 67.838495 76.26813-75.866719h-11.640925c-30.908663-1.204234-42.148177-9.232458-42.148178-20.873383 0-11.640925 9.232458-20.873383 20.873383-20.873383h81.486476c0.401411 0 0.802822 0.401411 1.605645 0.401411 0.401411 0 0.802822-0.401411 1.204234-0.401411 2.007056 0 3.612701 0.802822 5.619757 1.204234 1.605645 0.401411 3.21129 1.204234 4.415523 2.007056 1.204234 0.802822 3.21129 0.401411 4.415523 1.605644 0.401411 0.401411 0.401411 1.605645 0.802823 2.007056 0.401411 0.401411 0.401411 0.802822 0.802822 1.204234 1.204234 1.605645 2.408467 3.21129 3.21129 5.218346 0.802822 2.007056 1.605645 4.816935 1.605645 7.626813zM554.348883 679.18777H301.861231c-11.640925 0-20.873383-9.232458-20.873383-20.873383 0-11.640925 9.232458-20.873383 20.873383-20.873383h252.487652c11.640925 0 20.873383 9.232458 20.873383 20.873383 0 11.640925-9.232458 20.873383-20.873383 20.873383zM680.793414 762.681301H301.861231c-11.640925 0-20.873383-9.232458-20.873383-20.873383 0-11.640925 9.232458-20.873383 20.873383-20.873383h378.932183c11.640925 0 20.873383 9.232458 20.873383 20.873383 0 11.640925-9.633869 20.873383-20.873383 20.873383z" fill="#FFFFFF" p-id="1731"></path></svg>