<?xml version="1.0" standalone="no"?><!DOCTYPE svg PUBLIC "-//W3C//DTD SVG 1.1//EN" "http://www.w3.org/Graphics/SVG/1.1/DTD/svg11.dtd"><svg t="1528876925294" class="icon" style="" viewBox="0 0 1055 1024" version="1.1" xmlns="http://www.w3.org/2000/svg" p-id="3770" xmlns:xlink="http://www.w3.org/1999/xlink" width="32.96875" height="32"><defs><style type="text/css">@font-face { font-family: uc-nexus-iconfont; src: url("chrome-extension://pogijhnlcfmcppgimcaccdkmbedjkmhi/res/font_9qmmi8b8jsxxbt9.woff") format("woff"), url("chrome-extension://pogijhnlcfmcppgimcaccdkmbedjkmhi/res/font_9qmmi8b8jsxxbt9.ttf") format("truetype"); }
</style></defs><path d="M256.64238 0C115.122314 0 0 115.122314 0 256.64238l0 180.435889 104.361166 0 0-180.435889c0-83.95891 68.322304-152.281214 152.281214-152.281214s152.281214 68.300342 152.281214 152.281214l0 180.435889 104.383128 0 0-180.435889C513.306722 115.122314 398.162447 0 256.64238 0z" p-id="3771" fill="#21BAA9"></path><path d="M971.599824 467.494981 373.631423 467.494981c-45.438395 0-82.289834 36.829477-82.289834 82.267872l0 391.947335c0 45.460357 36.829477 82.289834 82.289834 82.289834l597.9684 0c45.416434 0 82.245911-36.829477 82.245911-82.289834L1053.845734 549.740892C1053.845734 504.324458 1017.038219 467.494981 971.599824 467.494981zM838.425136 781.830287l-81.52118 0c-14.011453 32.700711-46.448625 55.606581-84.288333 55.606581s-70.27688-22.90587-84.310294-55.606581l-81.52118 0 0-72.187532 81.52118 0c14.033414-32.678749 46.470587-55.58462 84.310294-55.58462s70.27688 22.90587 84.288333 55.58462l81.52118 0L838.425136 781.830287z" p-id="3772" fill="#21BAA9"></path></svg>