<?xml version="1.0" standalone="no"?><!DOCTYPE svg PUBLIC "-//W3C//DTD SVG 1.1//EN" "http://www.w3.org/Graphics/SVG/1.1/DTD/svg11.dtd"><svg t="1531294045134" class="icon" style="" viewBox="0 0 1024 1024" version="1.1" xmlns="http://www.w3.org/2000/svg" p-id="2605" xmlns:xlink="http://www.w3.org/1999/xlink" width="64" height="64"><defs><style type="text/css">@font-face { font-family: uc-nexus-iconfont; src: url("chrome-extension://pogijhnlcfmcppgimcaccdkmbedjkmhi/res/font_9qmmi8b8jsxxbt9.woff") format("woff"), url("chrome-extension://pogijhnlcfmcppgimcaccdkmbedjkmhi/res/font_9qmmi8b8jsxxbt9.ttf") format("truetype"); }
</style></defs><path d="M512 1024C229.376 1024 0 794.624 0 512S229.376 0 512 0s512 229.376 512 512-231.424 512-512 512z m0-977.454545C255.069091 46.545455 46.545455 255.953455 46.545455 514.001455s208.523636 467.456 465.454545 467.456 465.454545-209.408 465.454545-467.456S766.882909 46.545455 512 46.545455z" p-id="2606" fill="#ffffff"></path><path d="M801.28 554.496A288.674909 288.674909 0 0 1 512 843.776a288.674909 288.674909 0 0 1-289.28-289.28h578.56z m-184.832-204.8c0 31.744 26.112 57.856 57.856 57.856s57.856-26.112 57.856-57.856-25.6-57.856-57.856-57.856c-32.256 0-57.856 25.6-57.856 57.856z m-327.168 0c0 31.744 26.112 57.856 57.856 57.856s57.856-26.112 57.856-57.856-25.6-57.856-57.856-57.856c-32.256 0-57.856 25.6-57.856 57.856z" p-id="2607" fill="#ffffff"></path></svg>