<?xml version="1.0" standalone="no"?><!DOCTYPE svg PUBLIC "-//W3C//DTD SVG 1.1//EN" "http://www.w3.org/Graphics/SVG/1.1/DTD/svg11.dtd"><svg t="1531988569566" class="icon" style="" viewBox="0 0 1024 1024" version="1.1" xmlns="http://www.w3.org/2000/svg" p-id="1354" xmlns:xlink="http://www.w3.org/1999/xlink" width="64" height="64"><defs><style type="text/css"></style></defs><path d="M903.04 252.16c-5.12-5.12-32-29.44-74.88-69.12-45.44-41.6-101.76-93.44-112-103.68l-8.96-8.96H190.72c-26.24 0-48 21.76-48 48v796.8c0 26.24 21.76 48 48 48H864c26.24 0 48-21.76 48-48V261.12l-8.96-8.96z m-116.48-23.68c16 14.72 32 29.44 45.44 41.6H704V152.32c22.4 21.12 52.48 48.64 82.56 76.16z m-582.4 672.64V131.84h438.4V300.8c0 16.64 13.44 30.72 30.72 30.72h177.28v569.6h-646.4z" fill="#ffffff" p-id="1355"></path><path d="M341.12 470.4c5.76-36.48 24.96-64.64 56.96-84.48s73.6-30.08 124.16-30.08c52.48 0 95.36 10.24 129.28 30.72 33.92 20.48 50.56 46.08 50.56 77.44 0 15.36-5.12 30.72-14.72 45.44-9.6 14.72-33.28 33.28-69.76 56.32-28.16 17.92-45.44 31.36-52.48 41.6-7.04 10.24-11.52 28.16-12.16 54.4h-65.92c0-21.12 1.28-36.48 3.2-46.08s6.4-19.2 13.44-28.16c7.04-8.96 15.36-17.92 26.24-26.24 10.88-8.32 26.24-17.92 45.44-30.08 24.96-15.36 40.32-28.16 46.72-37.12 6.4-8.96 9.6-17.92 9.6-26.88 0-19.2-10.24-35.84-31.36-49.92-21.12-14.08-46.72-21.76-76.8-21.76-61.44 0-98.56 26.88-111.36 80l-71.04-5.12z m219.52 288h-78.08v-55.68h78.08v55.68z" fill="#ffffff" p-id="1356"></path></svg>