<?xml version="1.0" standalone="no"?><!DOCTYPE svg PUBLIC "-//W3C//DTD SVG 1.1//EN" "http://www.w3.org/Graphics/SVG/1.1/DTD/svg11.dtd"><svg t="1532510230048" class="icon" style="" viewBox="0 0 1024 1024" version="1.1" xmlns="http://www.w3.org/2000/svg" p-id="2595" xmlns:xlink="http://www.w3.org/1999/xlink" width="64" height="64"><defs><style type="text/css"></style></defs><path d="M950.857143 292.571429v479.428571q0 27.428571-28 35.428571-99.428571 29.714286-193.142857 29.714286-41.714286 0-123.142857-16.857143T476.571429 803.428571q-93.714286 0-211.428572 27.428572v193.142857H173.714286V242.285714q-36-14.285714-57.714286-46.285714t-21.714286-70.857143q0-52 36.571429-88.571428T219.428571 0t88.571429 36.571429 36.571429 88.571428q0 38.857143-21.714286 70.857143t-57.714286 46.285714v38.857143q108.571429-25.142857 196-25.142857 56.571429 0 113.142857 8.571429 8 1.142857 63.714286 12.857142T723.428571 289.142857q44 0 94.285715-10.285714 6.285714-1.142857 45.714285-12t50.857143-10.857143q14.857143 0 25.714286 10.857143t10.857143 25.714286z" fill="#ffffff" p-id="2596"></path></svg>