<?xml version="1.0" standalone="no"?><!DOCTYPE svg PUBLIC "-//W3C//DTD SVG 1.1//EN" "http://www.w3.org/Graphics/SVG/1.1/DTD/svg11.dtd"><svg t="1531274418893" class="icon" style="" viewBox="0 0 1024 1024" version="1.1" xmlns="http://www.w3.org/2000/svg" p-id="9505" xmlns:xlink="http://www.w3.org/1999/xlink" width="64" height="64"><defs><style type="text/css"></style></defs><path d="M485.824 911.36L68.48 143.52A30.88 30.88 0 0 1 64 127.424 31.712 31.712 0 0 1 96 96h832c17.664 0 32 14.08 32 31.424a30.88 30.88 0 0 1-4.48 16.064L542.336 911.264a32.288 32.288 0 0 1-56.512 0.096z m-98.336-312.416L512 828.928l124.48-229.984h-248.96z m-34.016-62.88h317.056l68.064-125.76H285.408l68.064 125.76z m418.976-188.288l102.272-188.896H149.28l102.272 188.896c1.44-0.192 2.944-0.32 4.448-0.32h512c1.504 0 3.008 0.128 4.48 0.32z" fill="#ffffff" p-id="9506"></path></svg>