<?xml version="1.0" standalone="no"?><!DOCTYPE svg PUBLIC "-//W3C//DTD SVG 1.1//EN" "http://www.w3.org/Graphics/SVG/1.1/DTD/svg11.dtd"><svg t="1531275973335" class="icon" style="" viewBox="0 0 1024 1024" version="1.1" xmlns="http://www.w3.org/2000/svg" p-id="11027" xmlns:xlink="http://www.w3.org/1999/xlink" width="64" height="64"><defs><style type="text/css"></style></defs><path d="M984.615385 598.646154c0-263.876923-220.553846-480.492308-492.307693-480.492308S0 334.769231 0 598.646154c0 98.461538 31.507692 189.046154 82.707692 267.815384l196.923077-133.907692c-27.569231-39.384615-43.323077-86.646154-43.323077-133.907692 0-133.907692 114.215385-244.184615 256-244.184616s256 110.276923 256 244.184616c0 47.261538-15.753846 94.523077-43.323077 133.907692l192.984616 133.907692c55.138462-74.830769 86.646154-169.353846 86.646154-267.815384z" fill="#ffffff" p-id="11028"></path><path d="M626.215385 393.846154c86.646154 51.2 118.153846 133.907692 118.153846 212.676923 0 31.507692-7.876923 78.769231-43.323077 126.030769l196.923077 133.907692c51.2-74.830769 82.707692-169.353846 82.707692-267.815384 0-173.292308-94.523077-326.892308-236.307692-409.6-3.938462 15.753846-98.461538 173.292308-118.153846 204.8z" fill="#ffffff" p-id="11029"></path><path d="M764.061538 181.169231l-216.615384 555.323077h-55.138462l-27.56923-63.015385 275.692307-504.123077z" fill="#ffffff" p-id="11030"></path></svg>