<?xml version="1.0" standalone="no"?><!DOCTYPE svg PUBLIC "-//W3C//DTD SVG 1.1//EN" "http://www.w3.org/Graphics/SVG/1.1/DTD/svg11.dtd"><svg t="1532137055983" class="icon" style="" viewBox="0 0 1024 1024" version="1.1" xmlns="http://www.w3.org/2000/svg" p-id="1298" xmlns:xlink="http://www.w3.org/1999/xlink" width="64" height="64"><defs><style type="text/css"></style></defs><path d="M513.977539 69.659523c-178.095187 0-322.488809 144.121422-322.488809 321.857429 0 177.73396 322.488809 548.364209 322.488809 548.364209s322.482669-370.630249 322.482669-548.364209C836.460208 213.779921 692.069657 69.659523 513.977539 69.659523L513.977539 69.659523zM707.465299 391.514905c0 106.634646-86.621846 193.114253-193.487759 193.114253-106.868983 0-193.493899-86.48063-193.493899-193.114253 0-106.654089 86.624916-193.115276 193.493899-193.115276C620.842429 198.401676 707.465299 284.8557 707.465299 391.514905L707.465299 391.514905z" p-id="1299" fill="#ffffff"></path><path d="M507.711835 417.770895 507.711835 389.401778l102.425787-0.164752 0 89.725534c-15.725146 12.535501-31.943526 21.964244-48.656163 28.28623-16.715707 6.321986-33.869389 9.484002-51.460022 9.484002-23.750937 0-45.331441-5.084808-64.73742-15.256472-19.408025-10.169617-34.059724-24.877597-43.955094-44.12087-9.896394-19.240203-14.84408-40.738843-14.84408-64.48978 0-23.528879 4.920056-45.494147 14.762215-65.891709 9.839089-20.395516 23.998577-35.543517 42.470277-45.439912 18.472723-9.896394 39.749306-14.84408 63.829747-14.84408 17.483186 0 33.289174 2.832512 47.418986 8.494465 14.128789 5.665023 25.207102 13.552667 33.234939 23.668049 8.025791 10.117428 14.128789 23.311939 18.308995 39.584554l-28.864398 7.91732c-3.628644-12.313443-8.138354-21.99085-13.524015-29.02915-5.389754-7.03523-13.087063-12.671601-23.090904-16.906042-10.006911-4.231371-21.11183-6.349615-33.317827-6.349615-14.625092 0-27.270087 2.226714-37.933961 6.680143-10.666944 4.453429-19.271926 10.307763-25.812899 17.566074-6.54302 7.257288-11.627828 15.230889-15.256472 23.915689-6.15928 14.95562-9.236362 31.172977-9.236362 48.656163 0 21.552875 3.710508 39.584554 11.133571 54.099129 7.42204 14.514575 18.225083 25.292036 32.409131 32.327266 14.185071 7.0383 29.248138 10.555403 45.193295 10.555403 13.853519 0 27.378557-2.664689 40.573067-7.999185 13.195533-5.331425 23.199375-11.022031 30.018687-17.070794l0-45.026496L507.711835 417.772942z" p-id="1300" fill="#ffffff"></path></svg>