<?xml version="1.0" standalone="no"?><!DOCTYPE svg PUBLIC "-//W3C//DTD SVG 1.1//EN" "http://www.w3.org/Graphics/SVG/1.1/DTD/svg11.dtd"><svg t="1528877186283" class="icon" style="" viewBox="0 0 1024 1024" version="1.1" xmlns="http://www.w3.org/2000/svg" p-id="4575" xmlns:xlink="http://www.w3.org/1999/xlink" width="32" height="32"><defs><style type="text/css">@font-face { font-family: uc-nexus-iconfont; src: url("chrome-extension://pogijhnlcfmcppgimcaccdkmbedjkmhi/res/font_9qmmi8b8jsxxbt9.woff") format("woff"), url("chrome-extension://pogijhnlcfmcppgimcaccdkmbedjkmhi/res/font_9qmmi8b8jsxxbt9.ttf") format("truetype"); }
</style></defs><path d="M952.532295 495.269967 767.686357 310.423005c-9.060353-9.060353-23.75196-9.060353-32.81743 0l-37.363979 37.362956c-9.060353 9.060353-9.060353 23.757077 0 32.81743l81.538061 81.538061L407.384337 462.141452c-12.812817 0-23.199375 10.386558-23.199375 23.199375l0 52.845579c0 12.815887 10.386558 23.204491 23.199375 23.204491l371.479593 0-81.538061 81.538061c-9.060353 9.060353-9.060353 23.757077 0 32.81743l37.368072 37.363979c9.060353 9.05933 23.75503 9.05933 32.815383 0l147.653875-147.653875c0-0.005117 0.005117-0.005117 0.005117-0.005117l37.368072-37.368072C961.592648 519.020904 961.592648 504.33032 952.532295 495.269967L952.532295 495.269967zM634.083499 64.754816l-499.803213 0c-38.441521 0-69.608358 31.166837-69.608358 69.608358l0 754.806002c0 38.446637 31.166837 69.608358 69.608358 69.608358l499.803213 0c38.441521 0 69.608358-31.16172 69.608358-69.608358l0-97.937566c0-12.811794-10.386558-23.204491-23.204491-23.204491l-50.29243 0c-12.812817 0-23.205515 10.392698-23.205515 23.204491l0 37.257555c0 34.328853 0 34.328853-34.791387 34.328853L195.199751 862.818017c-34.801621 0-34.801621 0.00614-34.801621-34.806737L160.39813 194.712657c0-34.900881-0.074701-34.802644 34.801621-34.802644l376.99726 0c34.798551 0 34.791387 0.285502 34.791387 34.329876l0 38.353516c0 12.815887 10.392698 23.204491 23.205515 23.204491l50.29243 0c12.817933 0 23.204491-10.388605 23.204491-23.204491L703.690834 134.363174C703.691857 95.921653 672.52502 64.754816 634.083499 64.754816L634.083499 64.754816zM634.083499 64.754816" p-id="4576" fill="#21BAA9"></path></svg>