<?xml version="1.0" standalone="no"?><!DOCTYPE svg PUBLIC "-//W3C//DTD SVG 1.1//EN" "http://www.w3.org/Graphics/SVG/1.1/DTD/svg11.dtd"><svg t="1531792566845" class="icon" style="" viewBox="0 0 1024 1024" version="1.1" xmlns="http://www.w3.org/2000/svg" p-id="1331" xmlns:xlink="http://www.w3.org/1999/xlink" width="64" height="64"><defs><style type="text/css"></style></defs><path d="M905 179q-10-10-22-21-36-33-67-62-3-2-5-4-45-41-71-63-16-13-25-19-6-5-11-7-6-3-13-3-10 0-17.5 7.5T666 26v230h230l-26-25v767l26-25H230q-31 0-53.5-22.5T154 896V26l-26 26h461q10 0 17.5-7.5t7.5-18-7.5-18T589 1H102v895q0 53 37.5 90.5T230 1024h692V205H691l26 26V26q0 10-7.5 17.5T692 51q-5 0-9-2l2 2q7 5 22 17 25 22 69 62 3 2 5 4 31 28 67 62 12 10 22 20 6 5 8 8 8 7 18.5 7t18-8 7-18.5T914 187q-4-3-9-8zM102 461H0v435h1024V461H102z m106 250v108h-50V528h111q49 0 77.5 25.5T375 621t-28 66-79 24h-60z m0-41h61q27 0 41-12.5t14-36.5-14-38-40-14h-62v101z m211 149V528h86q39 0 69 17t46.5 49 16.5 72v15q0 41-16.5 72.5t-47 48.5-70.5 17h-84z m51-250v210h33q40 0 61-25t22-72v-16q0-47-20.5-72T505 569h-35z m385 127H738v123h-51V528h185v41H738v86h117v41z" p-id="1332" fill="#ffffff"></path></svg>