<?xml version="1.0" standalone="no"?><!DOCTYPE svg PUBLIC "-//W3C//DTD SVG 1.1//EN" "http://www.w3.org/Graphics/SVG/1.1/DTD/svg11.dtd"><svg t="1531272226603" class="icon" style="" viewBox="0 0 1024 1024" version="1.1" xmlns="http://www.w3.org/2000/svg" p-id="2565" xmlns:xlink="http://www.w3.org/1999/xlink" width="64" height="64"><defs><style type="text/css"></style></defs><path d="M942.6 513.1c0-236.9-192.1-429-429-429-118.5 0-225.8 48.1-303.4 125.7l305 304.4 427.4-1.1" fill="#ffffff" p-id="2566"></path><path d="M513.6 84.1c-10.1 0-20.1 0.4-30 1 222.9 15.4 399 201.1 399 428l-367.6 1 0.2 0.2 427.4-1.2c0-236.9-192.1-429-429-429z" fill="#ffffff" p-id="2567"></path><path d="M515.2 534.3c-5.3 0-10.4-2.1-14.1-5.8L196 224c-3.8-3.7-5.9-8.8-5.9-14.1s2.1-10.4 5.9-14.2c41.2-41.3 89.3-73.7 142.7-96.3 55.4-23.4 114.2-35.3 174.8-35.3 60.6 0 119.4 11.9 174.8 35.3 53.5 22.6 101.5 55 142.7 96.2 41.2 41.2 73.6 89.2 96.2 142.7 23.4 55.4 35.3 114.2 35.3 174.8 0 11-8.9 20-19.9 20l-427.4 1.2zM238.8 210.2l284.7 284.1 398.7-1.1C911.7 276.9 732.4 104.1 513.6 104.1c-102.6 0-199.4 37.5-274.8 106.1z" fill="#ffffff" p-id="2568"></path><path d="M942.6 512.6l-428.2 1.7-277.2 322.6c74.8 64.2 171.9 102.9 278.2 102.9 235.9 0.1 427.2-191.2 427.2-427.2z" fill="#ffffff" p-id="2569"></path><path d="M880.6 512.8c-0.1 225.5-174.9 410.1-396.3 425.9 10.2 0.7 20.6 1.1 31 1.1 236 0 427.3-191.3 427.3-427.3l-62 0.3z" fill="#ffffff" p-id="2570"></path><path d="M515.3 959.9c-54.4 0-107.5-9.7-158-28.7-48.7-18.4-93.6-45-133.2-79.1-4-3.5-6.5-8.4-6.9-13.7-0.4-5.3 1.3-10.5 4.8-14.5l277.3-322.6c3.8-4.4 9.3-6.9 15.1-7l428.2-1.7h0.1c5.3 0 10.4 2.1 14.1 5.8 3.8 3.8 5.9 8.9 5.9 14.2 0 60.4-11.8 119-35.2 174.1-22.5 53.3-54.8 101.1-95.9 142.2s-88.9 73.3-142.2 95.9c-55.1 23.2-113.7 35.1-174.1 35.1zM265.7 834.4c71.2 55.2 159.1 85.5 249.7 85.5 217.9 0 396.3-171.9 406.8-387.2l-398.5 1.6-258 300.1z" fill="#ffffff" p-id="2571"></path><path d="M169.7 767.1c-55.3-68.9-88.3-156.3-88.3-251.5 0-85.4 26.6-164.7 72.1-229.8l243.7 228.7-227.5 252.6z" fill="#ffffff" p-id="2572"></path><path d="M169.7 787.1h-0.6c-5.9-0.2-11.4-2.9-15-7.5C124.7 743 101.8 702.1 86 658c-16.3-45.6-24.6-93.5-24.6-142.4 0-86.8 26.2-170.3 75.7-241.3 3.3-4.8 8.6-7.8 14.3-8.5 5.8-0.6 11.5 1.3 15.8 5.3L410.8 500c7.9 7.4 8.5 19.9 1.2 28L184.5 780.5c-3.7 4.3-9.2 6.6-14.8 6.6zM157.1 316.7c-36.6 59.8-55.8 128.1-55.8 198.9 0 80 24 155.6 69.7 220.1l198.1-220-212-199z" fill="#ffffff" p-id="2573"></path><path d="M311.4 432.3V609" fill="#ffffff" p-id="2574"></path><path d="M291.4 432.3h40v176.8h-40z" fill="#ffffff" p-id="2575"></path><path d="M253.9 381.7v292" fill="#ffffff" p-id="2576"></path><path d="M233.9 381.7h40v292h-40z" fill="#ffffff" p-id="2577"></path><path d="M196.5 327.4V737" fill="#ffffff" p-id="2578"></path><path d="M176.5 327.4h40v409.7h-40z" fill="#ffffff" p-id="2579"></path><path d="M139.1 307.9v414.5" fill="#ffffff" p-id="2580"></path><path d="M119.1 307.9h40v414.4h-40z" fill="#ffffff" p-id="2581"></path></svg>