<?xml version="1.0" standalone="no"?><!DOCTYPE svg PUBLIC "-//W3C//DTD SVG 1.1//EN" "http://www.w3.org/Graphics/SVG/1.1/DTD/svg11.dtd"><svg t="1532081314919" class="icon" style="" viewBox="0 0 1024 1024" version="1.1" xmlns="http://www.w3.org/2000/svg" p-id="696" xmlns:xlink="http://www.w3.org/1999/xlink" width="64" height="64"><defs><style type="text/css"></style></defs><path d="M492 81.2c6.4-0.4 13-0.4 19.4-0.4 238.8 0 433.2 194.4 433.2 433.2 0 134-61.2 254.2-157.2 333.6l12.2 32c108.2-85.4 177.8-217.6 177.8-365.6 0-256.8-209-466-466-466-10.6 0-21.2 0.4-31.8 1.2l12.4 32z m12.6 865.8C269 943.2 78.4 750.6 78.4 514c0-124.6 53-237 137.4-316.2l-12.6-32.8C106.6 250.6 45.6 375.2 45.6 514c0 256.8 209 466 466 466 2 0 3.8-0.2 5.6-0.2l-12.6-32.8z m0 0" fill="#ffffff" p-id="697"></path><path d="M469 964c0 23.4 19 42.4 42.4 42.4s42.4-19 42.4-42.4-19-42.4-42.4-42.4-42.4 19-42.4 42.4z m0 0" fill="#ffffff" p-id="698"></path><path d="M511.4 1022.6c-32.4 0-58.8-26.4-58.8-58.8s26.4-58.8 58.8-58.8 58.8 26.4 58.8 58.8-26.4 58.8-58.8 58.8z m0-84.6c-14.4 0-26 11.8-26 26 0 14.4 11.8 26 26 26 14.4 0 26-11.8 26-26 0-14.4-11.6-26-26-26z m0 0" fill="#ffffff" p-id="699"></path><path d="M632.8 348.6c0 23.4 19 42.4 42.4 42.4s42.4-19 42.4-42.4-19-42.4-42.4-42.4-42.4 19-42.4 42.4z m0 0" fill="#ffffff" p-id="700"></path><path d="M675.2 407.4c-32.4 0-58.8-26.4-58.8-58.8s26.4-58.8 58.8-58.8 58.8 26.4 58.8 58.8-26.4 58.8-58.8 58.8z m0-84.8c-14.4 0-26 11.8-26 26 0 14.4 11.8 26 26 26 14.4 0 26-11.8 26-26s-11.6-26-26-26z m0 0" fill="#ffffff" p-id="701"></path><path d="M469 63.2c0 23.4 19 42.4 42.4 42.4s42.4-19 42.4-42.4-19-42.4-42.4-42.4-42.4 19-42.4 42.4z m0 0" fill="#ffffff" p-id="702"></path><path d="M511.4 122c-32.4 0-58.8-26.4-58.8-58.8s26.4-58.8 58.8-58.8 58.8 26.4 58.8 58.8S543.8 122 511.4 122z m0-84.8c-14.4 0-26 11.8-26 26 0 14.4 11.8 26 26 26 14.4 0 26-11.8 26-26s-11.6-26-26-26z m0 0M527.2 774.2c139-22 218.8-102.4 240.4-240.8h104c0.2-5.8 0.4-11.8 0.4-17.6 0-5.6-0.2-11.2-0.4-16.8h-102.4c-6.8-27.6-13-53.8-19.6-81.4-20.2 12.6-37.2 23-56 34.8 2.4 13.6 5.2 29.4 8.4 47.8-41.6 0-80.8 0.6-120-0.6-5.4-0.2-12.6-7.6-14.8-13.4-1.8-4.6 0.6-13.2 4.2-17.2 11.4-12.6 24.4-24 37.2-36.6-7.6-8.6-13.6-15.4-25-28.4-12.2 14.6-23 28.8-35.2 41.8-4 4.4-11.2 6-17 8.8-2.2-5.6-6.2-11.4-6.2-17.2-0.6-36.8-0.4-73.6-0.4-113.8 17.6 2.8 33 5.2 47.6 7.6 11.2-17.6 22-34.6 34.8-55-26.6-7-52.8-13.8-80-21v-102c-6-0.2-11.8-0.4-17.8-0.4-5.2 0-10.4 0.2-15.4 0.4 0.2 34.8 0.2 69.4 0.2 104-141.4 21.6-221.6 102.2-243.2 241.8H146.6c-0.2 5.6-0.4 11.2-0.4 16.8 0 6 0.2 11.8 0.4 17.6h104.2c21.6 139.4 102.2 219.6 241.6 240.8v104.2c5.6 0.2 11.2 0.4 16.8 0.4 6 0 12-0.2 18-0.4v-104.2z m-34.6-69.6c-91 3.6-178-96.8-172-172.4 38.2 0 76.6-0.2 115 0.4 4.8 0.2 10.4 4 14 7.8 13.4 13.8 26 28 43 46.6v117.6z m0.8-261c0 4-3.6 8.8-6.8 11.8-14.6 13.6-29.6 26.8-48.2 43.6H320c-2.8-84.2 85.6-173 173.8-173.2-0.2 39.2 0 78.4-0.4 117.8z m32.4 147.2c0.2-5.4 4.8-11.4 9-15.8 10.8-11.8 22-23 33.6-33.6 4.4-4 10.4-8.8 15.8-9 37.6-0.8 75.2-0.4 112.6-0.4 8.4 69.8-73.6 172.4-171.4 173.2 0-39.2-0.4-76.8 0.4-114.4z m0 0" fill="#ffffff" p-id="703"></path></svg>