<?xml version="1.0" standalone="no"?><!DOCTYPE svg PUBLIC "-//W3C//DTD SVG 1.1//EN" "http://www.w3.org/Graphics/SVG/1.1/DTD/svg11.dtd"><svg t="1531274526543" class="icon" style="" viewBox="0 0 1024 1024" version="1.1" xmlns="http://www.w3.org/2000/svg" p-id="10091" xmlns:xlink="http://www.w3.org/1999/xlink" width="64" height="64"><defs><style type="text/css"></style></defs><path d="M946.32 512.09l-3.08-10-76.72-248.19-3.14-10.15-8.22-6.28L654.67 84.35l-8.45-6.46h-258l-10-0.15-8.93 6.61-200.44 153.1-7.95 5.91-3.42 10.54-76.72 248.18-3.09 9.92 3.09 10.06 76.72 248.19 3.14 10.17 8.23 6.28 200.48 153.1 8.46 6.46h268.43l8.45-6.45L855.15 786.7l8.22-6.27 3.14-10.15 76.72-248.19z m-24-10H793.49l-48.12-155.67 104.24-79.61z m-363.42-108l45.54 34.78-73.69 56.27zM512 478.26l-28.11-91h56.23z m-18.77 6.91l-73.67-56.26 45.53-34.77z m-10.77 16.91h-91.22l17.42-56.36z m0 20l-73.8 56.36-17.42-56.36zM493.23 539l-28.13 91-45.52-34.77z m18.77 6.88l28.11 90.93h-56.22z m18.77-6.88l73.68 56.27L558.91 630z m10.76-16.91h91.28l-17.43 56.39z m0-20l73.85-56.39 17.43 56.39z m79.38-85.76l-55.71-42.55 36.91-119.4 115.43 88.15z m-74.62-49h-68.58l-37-119.76h142.6z m-87.48 6.48l-55.7 42.53-96.64-73.8 115.42-88.14z m-67.06 59l-21.41 69.28H251.45l44.12-142.73z m-21.41 89.25l21.42 69.27-96.18 73.45-44.13-142.72z m32.78 85.73l55.69 42.53-36.91 119.41-115.42-88.14z m74.6 49h68.57l37 119.77h-142.6z m87.48-6.44l55.71-42.54 96.63 73.79-115.44 88.15z m67.09-59l21.43-69.31h118.86l-44.13 142.77z m21.43-89.28l-21.43-69.31 96.16-73.44 44.13 142.75zM838.69 250L734 330l-125.6-95.92 40-129.37zM629.59 97.87l-40.1 129.74h-155L394.41 97.87z m-254 6.82l40 129.39L290 330l-104.69-80z m-201.2 162.13l104.26 79.62-48.11 155.64H101.67z m-72.72 255.24h128.87l48.12 155.64-104.27 79.63z m83.63 252.07l104.72-80 125.59 95.91-40 129.4z m209.11 152.15l40.11-129.75h155l40.11 129.75z m254-6.81l-40-129.38L734 694.17l104.71 80z m201.2-162.14l-104.25-79.61 48.12-155.66h128.86z" fill="#ffffff" p-id="10092"></path><path d="M268.53 503.81l323.81-240.36 157.28 406.77-481.09-166.41z" fill="#ffffff" p-id="10093"></path><path d="M587.76 279.29l144.79 374.45-442.88-153.18 298.09-221.27m9.17-31.68L247.39 507.07 766.7 686.69 596.93 247.62z" fill="#ffffff" p-id="10094"></path></svg>