<?xml version="1.0" standalone="no"?><!DOCTYPE svg PUBLIC "-//W3C//DTD SVG 1.1//EN" "http://www.w3.org/Graphics/SVG/1.1/DTD/svg11.dtd"><svg t="1531272301757" class="icon" style="" viewBox="0 0 1024 1024" version="1.1" xmlns="http://www.w3.org/2000/svg" p-id="2944" xmlns:xlink="http://www.w3.org/1999/xlink" width="64" height="64"><defs><style type="text/css"></style></defs><path d="M490.496 169.472c-201.216 0-364.032 162.816-364.032 364.032s162.816 364.032 364.032 364.032 364.032-162.816 364.032-364.032-162.816-364.032-364.032-364.032z m0 628.736c-146.432 0-264.704-118.272-264.704-264.704s118.272-264.704 264.704-264.704 264.704 118.272 264.704 264.704c0.512 146.432-118.272 264.704-264.704 264.704z" fill="#ffffff" p-id="2945"></path><path d="M303.616 720.384c-48.128-48.128-77.312-114.176-77.312-187.392 0-146.432 118.272-264.704 264.704-264.704V168.96c-201.216 0-364.032 162.816-364.032 364.032 0 98.816 39.424 188.928 103.936 254.464-0.512 0.512 72.704-67.072 72.704-67.072z" fill="#ffffff" p-id="2946"></path><path d="M863.232 375.808c-20.48-48.128-49.664-91.136-86.528-128.512s-80.384-66.048-128.512-86.528c-49.664-20.992-102.912-31.744-157.184-31.744s-107.52 10.752-157.184 31.744c-48.128 20.48-91.648 49.152-128.512 86.528s-66.048 80.384-86.528 128.512c-20.992 49.664-31.744 102.912-31.744 157.184s10.752 107.52 31.744 157.184c20.48 48.128 49.664 91.648 86.528 128.512s80.384 66.048 128.512 86.528c49.664 20.992 102.912 31.744 157.184 31.744s107.52-10.752 157.184-31.744c48.128-20.48 91.136-49.664 128.512-86.528s66.048-80.384 86.528-128.512c20.992-49.664 31.744-102.912 31.744-157.184s-10.752-107.008-31.744-157.184z m-372.736 521.728c-95.744 0-183.296-37.376-248.32-97.792l73.728-67.072c46.592 40.96 107.52 65.536 174.592 65.536 146.432 0 264.704-118.272 264.704-264.704s-118.272-264.704-264.704-264.704-264.704 118.272-264.704 264.704c0 64.512 23.04 123.904 61.952 169.984l-73.216 67.072c-54.784-63.488-87.552-146.432-87.552-236.544 0-201.216 162.816-364.032 364.032-364.032S855.04 332.8 855.04 534.016s-163.328 363.52-364.544 363.52z m-224.768-364.032c0-123.904 100.864-224.768 224.768-224.768s224.768 100.864 224.768 224.768-100.864 224.768-224.768 224.768-224.768-100.864-224.768-224.768z" fill="#ffffff" p-id="2947"></path><path d="M490.496 106.496c235.52 0 426.496 190.976 426.496 426.496H486.4l4.096-426.496z" fill="#ffffff" p-id="2948"></path><path d="M675.328 148.48c98.816 78.336 162.304 199.168 162.304 334.848h-350.72l-0.512 50.176h431.104c0-169.984-98.816-316.416-242.176-385.024z" fill="#ffffff" p-id="2949"></path><path d="M917.504 553.472H486.4c-5.12 0-10.752-2.048-14.336-6.144-3.584-3.584-5.632-8.704-5.632-14.336l4.608-426.496c0-10.752 9.216-19.968 19.968-19.968 60.416 0 118.784 11.776 174.08 35.328 53.248 22.528 100.864 54.784 141.824 95.744s73.216 88.576 95.744 141.824c23.552 55.296 35.328 113.664 35.328 174.08-0.512 10.752-9.728 19.968-20.48 19.968z m-411.136-39.936h390.656c-10.24-208.384-178.176-376.32-386.56-386.048 0-0.512-4.096 386.048-4.096 386.048z" fill="#ffffff" p-id="2950"></path></svg>