<?xml version="1.0" standalone="no"?><!DOCTYPE svg PUBLIC "-//W3C//DTD SVG 1.1//EN" "http://www.w3.org/Graphics/SVG/1.1/DTD/svg11.dtd"><svg t="1532081337944" class="icon" style="" viewBox="0 0 1024 1024" version="1.1" xmlns="http://www.w3.org/2000/svg" p-id="1066" xmlns:xlink="http://www.w3.org/1999/xlink" width="64" height="64"><defs><style type="text/css"></style></defs><path d="M722.9 359.5c0-115.4-94.4-211.3-211.3-211.3s-211.3 94.4-211.3 211.3 211.3 392.7 211.3 392.7 211.3-277.3 211.3-392.7z m-329.8 3c0-64.4 54-118.4 118.4-118.4s118.4 54 118.4 118.4c0 64.5-52.5 118.4-118.4 118.4s-118.4-54-118.4-118.4z m553.1 509.6H75.4c-9 0-15-13.5-9-24l139.4-214.3c1.5-4.5 4.5-6 9-6h161.9c9 15 19.5 30 28.5 45H232.8L132.4 827.1h758.4L790.3 672.7H618c9-15 19.5-30 28.5-45h161.9c3 0 7.5 1.5 9 6L956.8 848c7.4 10.6 1.4 24.1-10.6 24.1z" p-id="1067" fill="#ffffff"></path></svg>