<?xml version="1.0" standalone="no"?><!DOCTYPE svg PUBLIC "-//W3C//DTD SVG 1.1//EN" "http://www.w3.org/Graphics/SVG/1.1/DTD/svg11.dtd"><svg t="1531276957456" class="icon" style="" viewBox="0 0 1024 1024" version="1.1" xmlns="http://www.w3.org/2000/svg" p-id="14318" xmlns:xlink="http://www.w3.org/1999/xlink" width="64" height="64"><defs><style type="text/css"></style></defs><path d="M172.032 396.288c66.048-16.896 117.248-45.056 177.664-78.336 10.752-5.632 21.504-11.776 32.768-17.92C291.84 221.696 178.176 158.72 8.192 158.72v200.704c66.56-0.512 118.272 13.312 163.84 36.864zM768.512 622.08c-112.128 17.92-190.464 47.616-259.072 79.36 114.688 90.112 268.8 163.328 510.976 163.328v-200.704c-103.424 0.512-184.32-15.36-251.904-41.984zM195.072 409.6c0.512 0.512 1.024 0.512 1.536 1.024-0.512-0.512-1.024-1.024-1.536-1.024zM443.392 644.608c59.904-29.696 126.464-58.88 215.552-81.408-17.92-12.288-34.304-25.6-50.688-39.424-40.96 17.92-77.312 37.888-114.176 57.856-24.064 13.312-48.64 26.624-75.264 39.936l24.576 23.04z" fill="#ffffff" p-id="14319"></path><path d="M658.944 563.2s1.024 0.512 1.536 1.024c32.256 22.528 67.584 41.984 108.032 58.368 69.12-10.752 151.04-17.408 251.904-17.408v-80.384c-154.112 0-268.288 15.36-359.424 37.888l-2.048 0.512zM509.44 701.952c-23.552-18.432-45.568-37.888-66.048-57.344-12.8 6.144-25.088 12.288-37.376 18.432-108.544 54.784-201.728 101.888-397.824 101.888v80.384c215.04 0 321.536-53.76 434.176-110.592 22.016-10.752 44.032-22.016 67.072-32.768z" fill="#ffffff" p-id="14320"></path><path d="M509.44 701.952c68.608-32.256 146.432-61.44 259.072-79.36-40.96-16.384-76.8-36.352-109.568-59.392-89.088 22.528-155.648 52.224-215.552 81.408 20.992 19.456 42.496 38.4 66.048 57.344z" fill="#ffffff" p-id="14321"></path><path d="M382.464 300.032c41.984 36.352 79.36 75.776 114.688 113.152 36.352 38.4 71.68 76.288 111.616 110.08 91.648-39.936 206.848-69.12 407.04-69.12V153.6c-337.408 0-504.832 77.312-633.344 146.432zM419.328 621.568l-2.048-2.048c-23.552-23.04-45.056-46.08-66.048-68.608-61.952-66.048-113.664-120.832-179.2-154.624-45.056 11.776-96.768 17.92-163.84 17.92v300.544c182.784 0 301.568-40.448 397.312-87.04 4.096-2.048 10.752-5.12 10.752-5.12l3.072-1.024z" fill="#ffffff" p-id="14322"></path><path d="M497.152 413.184c-35.84-37.888-72.704-77.312-114.688-113.152-11.264 6.144-22.016 11.776-32.768 17.92-60.928 33.28-111.616 61.44-177.664 78.336 65.536 33.792 117.248 89.088 179.2 154.624 21.504 23.04 44.032 46.592 68.096 70.656 26.112-13.312 51.2-26.624 75.264-39.936 36.864-19.968 73.216-39.936 114.176-57.856-39.936-34.304-75.264-72.192-111.616-110.592z" fill="#ffffff" p-id="14323"></path></svg>