<?xml version="1.0" standalone="no"?><!DOCTYPE svg PUBLIC "-//W3C//DTD SVG 1.1//EN" "http://www.w3.org/Graphics/SVG/1.1/DTD/svg11.dtd"><svg t="1531276064152" class="icon" style="" viewBox="0 0 1024 1024" version="1.1" xmlns="http://www.w3.org/2000/svg" p-id="12395" xmlns:xlink="http://www.w3.org/1999/xlink" width="64" height="64"><defs><style type="text/css"></style></defs><path d="M768 796.444c-45.511 0-85.333-39.822-85.333-85.333s39.822-85.333 85.333-85.333 85.333 39.822 85.333 85.333-39.822 85.333-85.333 85.333zM426.667 512c-45.511 0-85.334-39.822-85.334-85.333s39.823-85.334 85.334-85.334S512 381.156 512 426.667 472.178 512 426.667 512z m256-227.556c-34.134 0-56.89-22.755-56.89-56.888s22.756-56.89 56.89-56.89 56.889 22.756 56.889 56.89-22.756 56.888-56.89 56.888z m227.555 170.667c-34.133 0-56.889-22.755-56.889-56.889s22.756-56.889 56.89-56.889 56.888 22.756 56.888 56.89-22.755 56.888-56.889 56.888zM227.556 341.333c-34.134 0-56.89-22.755-56.89-56.889s22.756-56.888 56.89-56.888 56.888 22.755 56.888 56.888-22.755 56.89-56.888 56.89zM512 739.556c-34.133 0-56.889-22.756-56.889-56.89s22.756-56.888 56.889-56.888 56.889 22.755 56.889 56.889-22.756 56.889-56.889 56.889zM682.667 512c-34.134 0-56.89-22.756-56.89-56.889s22.756-56.889 56.89-56.889 56.889 22.756 56.889 56.89S716.8 512 682.666 512zM284.444 796.444c-34.133 0-56.888-22.755-56.888-56.888s22.755-56.89 56.888-56.89 56.89 22.756 56.89 56.89-22.756 56.888-56.89 56.888zM56.89 938.667V56.889h56.889v853.333H967.11v56.89H56.89v-28.445z" p-id="12396" fill="#ffffff"></path></svg>