<?xml version="1.0" standalone="no"?><!DOCTYPE svg PUBLIC "-//W3C//DTD SVG 1.1//EN" "http://www.w3.org/Graphics/SVG/1.1/DTD/svg11.dtd"><svg t="1531216511743" class="icon" style="" viewBox="0 0 1024 1024" version="1.1" xmlns="http://www.w3.org/2000/svg" p-id="1684" xmlns:xlink="http://www.w3.org/1999/xlink" width="64" height="64"><defs><style type="text/css">@font-face { font-family: uc-nexus-iconfont; src: url("chrome-extension://pogijhnlcfmcppgimcaccdkmbedjkmhi/res/font_9qmmi8b8jsxxbt9.woff") format("woff"), url("chrome-extension://pogijhnlcfmcppgimcaccdkmbedjkmhi/res/font_9qmmi8b8jsxxbt9.ttf") format("truetype"); }
</style></defs><path d="M102.771 78.62c48.992 4.309 95.999 8.25 142.957 12.695 14.047 1.33 25.778 7.962 35.296 18.65C354.93 192.98 429.047 275.81 502.689 359.058c7.06 7.981 10.073 7.766 16.994-0.06 73.137-82.663 146.753-164.902 220.068-247.409 10.045-11.308 21.928-18.827 36.946-20.231 47.356-4.424 94.762-8.278 142.101-12.853 8.31-0.803 9.636 1.738 8.901 9.218a14160.75 14160.75 0 0 0-13.011 139.72c-1.418 16.123-8.762 28.515-20.669 39.11-85.084 75.695-169.935 151.656-255.17 227.18-7.134 6.322-7.854 9.658-1.155 16.8 20.004 21.327 39.003 43.596 58.776 65.148 4.842 5.272 5.688 8.258-0.019 13.846-30.665 30.015-60.982 60.383-91.034 91.006-5.138 5.236-7.91 4.852-13.002 0.206-24.777-22.599-50.11-44.598-74.793-67.297-5.376-4.947-8.14-4.358-13.143 0.206-24.197 22.081-49.047 43.455-73.063 65.727-6.805 6.31-10.345 5.487-16.431-0.732-29.457-30.116-59.288-59.87-89.33-89.4-4.992-4.912-5.409-7.568-0.51-12.895 20.33-22.1 39.803-44.993 60.312-66.917 6.242-6.673 4.96-9.525-1.202-14.993-85.184-75.577-170.033-151.533-255.2-227.131-12.958-11.5-20.409-24.95-21.893-42.25-3.926-45.832-8.11-91.643-12.584-137.424-0.875-8.949 2.01-11.402 8.193-9.012zM412.297 832.97c-11.241 0.195-20.2-4.596-27.945-12.42-16.19-16.353-32.66-32.427-48.675-48.942-4.39-4.533-6.966-5.31-11.861-0.357-36.189 36.612-72.618 72.984-109.19 109.214-4.315 4.276-4.566 6.864 0.046 10.838 5.305 4.564 10.257 9.593 14.932 14.811 8.079 9.019 7.48 19.09-1.244 28.035-8.973 9.2-20.101 10.358-28.869 1.665a21165.282 21165.282 0 0 1-129.07-129.038c-9.156-9.232-8.308-19.37 1.035-28.78 9.053-9.119 19.465-9.53 28.903-1.135 0.292 0.256 0.559 0.545 0.86 0.791 6.8 5.598 11.807 17.619 19.522 16.48 7.182-1.06 13.064-11.309 19.398-17.632 31.189-31.141 62.204-62.45 93.624-93.348 5.367-5.276 5.67-8.112 0.06-13.444-16.388-15.584-32.219-31.752-48.11-47.854-17.371-17.595-17.26-39.082 0.085-56.83a537.363 537.363 0 0 1 9.091-9.109c18.248-17.827 39.423-17.774 57.611 0.393a212616.2 212616.2 0 0 1 196.881 196.917c18.616 18.643 18.544 39.75 0.084 58.476-17.689 17.943-23.512 21.272-37.168 21.268zM849.243 593.153c0.068 11.126-4.102 20.362-11.999 28.168-16.351 16.178-32.377 32.69-48.922 48.671-4.863 4.696-5.827 7.253-0.368 12.626 36.404 35.818 72.482 71.969 108.392 108.29 4.82 4.875 7.644 4.71 11.857-0.246 4.28-5.026 9.141-9.603 14.048-14.043 8.775-7.943 19.302-7.482 28.042 0.915 9.632 9.254 10.958 19.72 2.026 28.74a17834.655 17834.655 0 0 1-129.88 129.814c-8.694 8.6-19.89 7.138-28.797-2.245-8.688-9.155-8.962-18.794-0.758-28.058 1.028-1.167 2.217-2.186 3.314-3.297 16.55-16.737 16.54-16.728 0.252-33.011-31.987-31.978-64.188-63.74-95.753-96.124-6.665-6.841-10.094-6.16-16.137 0.283-13.86 14.784-28.497 28.84-42.841 43.167-22.123 22.1-41.557 22.2-63.428 0.348-1.93-1.93-3.864-3.856-5.78-5.798-17.902-18.144-18.078-39.646-0.159-57.612 47.355-47.483 94.814-94.857 142.233-142.276 18.475-18.47 36.889-36.997 55.445-55.385 18.104-17.939 39.32-17.843 57.593 0.067 17.684 17.334 21.52 23.896 21.62 37.006z" fill="#ffffff" p-id="1685"></path></svg>