<?xml version="1.0" standalone="no"?><!DOCTYPE svg PUBLIC "-//W3C//DTD SVG 1.1//EN" "http://www.w3.org/Graphics/SVG/1.1/DTD/svg11.dtd"><svg t="1531275943930" class="icon" style="" viewBox="0 0 1024 1024" version="1.1" xmlns="http://www.w3.org/2000/svg" p-id="10659" xmlns:xlink="http://www.w3.org/1999/xlink" width="64" height="64"><defs><style type="text/css"></style></defs><path d="M448 576h326.4c12.8 38.4 51.2 64 89.6 64 51.2 0 96-44.8 96-96s-44.8-96-96-96c-44.8 0-76.8 25.6-89.6 64H448V192h326.4c12.8 38.4 51.2 64 89.6 64 51.2 0 96-44.8 96-96s-44.8-96-96-96c-44.8 0-76.8 25.6-89.6 64H384v384H185.6c-12.8-38.4-44.8-64-89.6-64-51.2 0-96 44.8-96 96s44.8 96 96 96c44.8 0 76.8-25.6 89.6-64H384v384h390.4c12.8 38.4 51.2 64 89.6 64 51.2 0 96-44.8 96-96s-44.8-96-96-96c-44.8 0-76.8 25.6-89.6 64H448V576z" fill="#ffffff" p-id="10660"></path></svg>